<svg xmlns="http://www.w3.org/2000/svg" version="1.1" xmlns:xlink="http://www.w3.org/1999/xlink" xmlns:svgjs="http://svgjs.dev/svgjs" viewBox="0 0 22.192392234277158 5.974427007445936"><g transform="matrix(0.7179367592034456,0,0,0.7179367592034456,7.786386938355273,2.379496353467158)"><g transform="matrix(1,0,0,1,0,0)" clip-path="url(#SvgjsClipPath47795)"><g clip-path="url(#a722377f9-3d93-417c-97d8-ae02392e26ffea59c20e-2070-481f-94f6-215186dbfa56)"><path d=" M -3.8946806281532944 1.2085916074717544 L -1.7046151790779613 1.2085916074717544 L -1.465562638909705 -0.06884007946799242 L -1.4678628593603618 -0.07816875129565615 C -1.469864903085933 -0.08715664972322257 -1.6872783323480118 -0.9671187621244791 -2.7996479036156283 -0.9671187621244791 C -3.91035620455777 -0.9671187621244791 -4.152773882051989 -0.15049790546630826 -4.155116699177658 -0.14219155383893645 L -4.158098466428509 -0.13149978841088372 Z" fill="#4f4c4d" transform="matrix(1,0,0,1,0,0)" fill-rule="nonzero"></path></g><g clip-path="url(#a722377f9-3d93-417c-97d8-ae02392e26ffea59c20e-2070-481f-94f6-215186dbfa56)"><path d=" M -0.37819731587422734 -0.10083018240212671 C -0.48724480390536407 -0.27424124637664105 -0.6816134319858627 -0.38192564080738844 -0.8887184658949971 -0.38192564080738844 C -1.178461049327728 -0.38090332060709653 -1.3652048725810495 -0.21153894075873758 -1.414531822245134 0.09358104235338371 L -1.6409331499347783 1.2986409784474664 L -3.9663708321987645 1.2986409784474664 L -4.192772159888409 0.09490153927876077 C -4.242141706227506 -0.2115389407587377 -4.4291837062059125 -0.38090332060709653 -4.7212691067643116 -0.38192564080738844 C -4.925690550147681 -0.38192564080738844 -5.120399951628276 -0.27424124637664116 -5.229106666259315 -0.10083018240212682 C -5.310807088932643 0.029217466410006 -5.332488796513834 0.1596058886222359 -5.293811015602791 0.28696994690860234 C -5.220459541231847 0.5263632604769567 -4.953676565630671 0.6787741636704748 -4.863329017929875 0.7244377992835133 C -4.854681892902405 1.708080218664374 -4.404861004773967 2.4010003310872245 -4.404861004773967 2.4010003310872245 L -4.242141706227506 2.4010003310872245 L -4.242141706227506 2.660073308511198 L -3.820647606982156 2.660073308511198 L -3.820647606982156 2.4010003310872245 L -1.7869971485514853 2.4010003310872245 L -1.7869971485514853 2.660073308511198 L -1.365503049306135 2.660073308511198 L -1.365503049306135 2.4010003310872245 L -1.2024855740345881 2.4010003310872245 C -1.2024855740345881 2.4010003310872245 -0.752962862631235 1.7080802186643744 -0.7439749642036686 0.7244377992835133 C -0.6539681899029688 0.6787741636704748 -0.38684444090169645 0.5263632604769569 -0.31383373993084973 0.28696994690860234 C -0.2748151856197083 0.1596058886222359 -0.29649689320089934 0.029217466410006 -0.37819731587422734 -0.10083018240212671" fill="#4f4c4d" transform="matrix(1,0,0,1,0,0)" fill-rule="nonzero"></path></g></g><g><path d=" M 0.485556 2.220446049250313e-16 L 0.742449 2.220446049250313e-16 L 0.519432 0.9061830000000002 L 0.2328975 0.9061830000000002 L 0.0098805 2.220446049250313e-16 L 0.2667735 2.220446049250313e-16 L 0.375459 0.6055335000000002 L 0.485556 2.220446049250313e-16 M 1.0120737575683594 2.220446049250313e-16 L 1.2209757575683593 2.220446049250313e-16 Q 1.4284662575683593 2.220446049250313e-16 1.4284662575683593 0.17502600000000024 L 1.4284662575683593 0.7311570000000002 Q 1.4284662575683593 0.9061830000000002 1.2209757575683593 0.9061830000000002 L 1.0120737575683594 0.9061830000000002 Q 0.8045832575683594 0.9061830000000002 0.8045832575683594 0.7311570000000002 L 0.8045832575683594 0.17502600000000024 Q 0.8045832575683594 2.220446049250313e-16 1.0120737575683594 2.220446049250313e-16 M 1.1814537575683592 0.6986925000000002 L 1.1814537575683592 0.20749050000000013 Q 1.1814537575683592 0.17643750000000014 1.1461662575683593 0.17643750000000014 L 1.0868832575683594 0.17643750000000014 Q 1.0515957575683594 0.17643750000000014 1.0515957575683594 0.20749050000000013 L 1.0515957575683594 0.6986925000000002 Q 1.0515957575683594 0.7297455000000002 1.0868832575683594 0.7297455000000002 L 1.1461662575683593 0.7297455000000002 Q 1.1814537575683592 0.7297455000000002 1.1814537575683592 0.6986925000000002 M 2.1454958518066407 0.3105300000000002 L 1.8984833518066406 0.3105300000000002 L 1.8984833518066406 0.19337550000000014 Q 1.8984833518066406 0.16232250000000015 1.8631958518066405 0.16232250000000015 L 1.8123818518066406 0.16232250000000015 Q 1.7770943518066407 0.16232250000000015 1.7770943518066407 0.19337550000000014 L 1.7770943518066407 0.7128075000000001 Q 1.7770943518066407 0.7438605000000001 1.8123818518066406 0.7438605000000001 L 1.8631958518066405 0.7438605000000001 Q 1.8984833518066406 0.7438605000000001 1.8984833518066406 0.7128075000000001 L 1.8984833518066406 0.5617770000000002 L 1.8279083518066406 0.5617770000000002 L 1.8279083518066406 0.4051005000000002 L 2.1454958518066407 0.4051005000000002 L 2.1454958518066407 0.7311570000000002 Q 2.1454958518066407 0.9061830000000002 1.9380053518066407 0.9061830000000002 L 1.7375723518066406 0.9061830000000002 Q 1.5300818518066406 0.9061830000000002 1.5300818518066406 0.7311570000000002 L 1.5300818518066406 0.17502600000000024 Q 1.5300818518066406 2.220446049250313e-16 1.7375723518066406 2.220446049250313e-16 L 1.9380053518066407 2.220446049250313e-16 Q 2.1454958518066407 2.220446049250313e-16 2.1454958518066407 0.17502600000000024 L 2.1454958518066407 0.3105300000000002 M 2.62113826977539 2.220446049250313e-16 L 2.8681507697753905 2.220446049250313e-16 L 2.8681507697753905 0.7311570000000002 Q 2.8681507697753905 0.9061830000000002 2.6606602697753905 0.9061830000000002 L 2.4517582697753904 0.9061830000000002 Q 2.2442677697753903 0.9061830000000002 2.2442677697753903 0.7311570000000002 L 2.2442677697753903 2.220446049250313e-16 L 2.49128026977539 2.220446049250313e-16 L 2.49128026977539 0.6986925000000002 Q 2.49128026977539 0.7297455000000002 2.5265677697753905 0.7297455000000002 L 2.5858507697753903 0.7297455000000002 Q 2.62113826977539 0.7297455000000002 2.62113826977539 0.6986925000000002 L 2.62113826977539 2.220446049250313e-16 M 3.2280446740722653 0.7297455000000002 L 3.5371631740722655 0.7297455000000002 L 3.5371631740722655 0.9061830000000002 L 2.9810321740722654 0.9061830000000002 L 2.9810321740722654 2.220446049250313e-16 L 3.5244596740722653 2.220446049250313e-16 L 3.5244596740722653 0.17643750000000014 L 3.2280446740722653 0.17643750000000014 L 3.2280446740722653 0.3613440000000002 L 3.4835261740722654 0.3613440000000002 L 3.4835261740722654 0.5377815000000001 L 3.2280446740722653 0.5377815000000001 L 3.2280446740722653 0.7297455000000002 M 4.144089565429687 0.7297455000000002 L 4.4532080654296875 0.7297455000000002 L 4.4532080654296875 0.9061830000000002 L 3.8970770654296873 0.9061830000000002 L 3.8970770654296873 2.220446049250313e-16 L 4.440504565429688 2.220446049250313e-16 L 4.440504565429688 0.17643750000000014 L 4.144089565429687 0.17643750000000014 L 4.144089565429687 0.3613440000000002 L 4.399571065429687 0.3613440000000002 L 4.399571065429687 0.5377815000000001 L 4.144089565429687 0.5377815000000001 L 4.144089565429687 0.7297455000000002 M 4.9443742265625 2.220446049250313e-16 L 5.1702142265625 2.220446049250313e-16 L 5.1702142265625 0.9061830000000002 L 4.9584892265625005 0.9061830000000002 L 4.7566447265625005 0.4305075000000002 L 4.7566447265625005 0.9061830000000002 L 4.530804726562501 0.9061830000000002 L 4.530804726562501 2.220446049250313e-16 L 4.7425297265625 2.220446049250313e-16 L 4.9443742265625 0.4841445000000002 L 4.9443742265625 2.220446049250313e-16 M 5.890107484130859 0.33876000000000017 L 5.643094984130859 0.33876000000000017 L 5.643094984130859 0.19337550000000014 Q 5.643094984130859 0.16232250000000015 5.607807484130859 0.16232250000000015 L 5.55840498413086 0.16232250000000015 Q 5.523117484130859 0.16232250000000015 5.523117484130859 0.19337550000000014 L 5.523117484130859 0.7128075000000001 Q 5.523117484130859 0.7438605000000001 5.55840498413086 0.7438605000000001 L 5.607807484130859 0.7438605000000001 Q 5.643094984130859 0.7438605000000001 5.643094984130859 0.7128075000000001 L 5.643094984130859 0.5730690000000002 L 5.890107484130859 0.5730690000000002 L 5.890107484130859 0.7311570000000002 Q 5.890107484130859 0.9061830000000002 5.68261698413086 0.9061830000000002 L 5.483595484130859 0.9061830000000002 Q 5.27610498413086 0.9061830000000002 5.27610498413086 0.7311570000000002 L 5.27610498413086 0.17502600000000024 Q 5.27610498413086 2.220446049250313e-16 5.483595484130859 2.220446049250313e-16 L 5.68261698413086 2.220446049250313e-16 Q 5.890107484130859 2.220446049250313e-16 5.890107484130859 0.17502600000000024 L 5.890107484130859 0.33876000000000017 M 6.228860592041015 0.7297455000000002 L 6.509749092041016 0.7297455000000002 L 6.509749092041016 0.9061830000000002 L 5.981848092041016 0.9061830000000002 L 5.981848092041016 2.220446049250313e-16 L 6.228860592041015 2.220446049250313e-16 L 6.228860592041015 0.7297455000000002 M 7.02777165966797 0.9061830000000002 L 6.999541659667969 0.7706790000000001 L 6.782170659667969 0.7706790000000001 L 6.7525291596679695 0.9061830000000002 L 6.509751159667969 0.9061830000000002 L 6.742648659667969 2.220446049250313e-16 L 7.04329815966797 2.220446049250313e-16 L 7.2761956596679696 0.9061830000000002 L 7.02777165966797 0.9061830000000002 M 6.820281159667969 0.5956530000000002 L 6.961431159667969 0.5956530000000002 L 6.8922676596679695 0.26959650000000024 L 6.820281159667969 0.5956530000000002 M 7.761793701416016 2.220446049250313e-16 L 8.018686701416016 2.220446049250313e-16 L 7.795669701416016 0.9061830000000002 L 7.509135201416016 0.9061830000000002 L 7.286118201416016 2.220446049250313e-16 L 7.543011201416016 2.220446049250313e-16 L 7.651696701416016 0.6055335000000002 L 7.761793701416016 2.220446049250313e-16 M 8.332067958984375 0.7297455000000002 L 8.641186458984375 0.7297455000000002 L 8.641186458984375 0.9061830000000002 L 8.085055458984375 0.9061830000000002 L 8.085055458984375 2.220446049250313e-16 L 8.628482958984375 2.220446049250313e-16 L 8.628482958984375 0.17643750000000014 L 8.332067958984375 0.17643750000000014 L 8.332067958984375 0.3613440000000002 L 8.587549458984375 0.3613440000000002 L 8.587549458984375 0.5377815000000001 L 8.332067958984375 0.5377815000000001 L 8.332067958984375 0.7297455000000002 M 9.001100350341797 2.220446049250313e-16 L 9.248112850341798 2.220446049250313e-16 L 9.248112850341798 0.9061830000000002 L 9.001100350341797 0.9061830000000002 L 9.001100350341797 2.220446049250313e-16 M 9.774609242431643 2.220446049250313e-16 L 10.000449242431642 2.220446049250313e-16 L 10.000449242431642 0.9061830000000002 L 9.788724242431641 0.9061830000000002 L 9.586879742431641 0.4305075000000002 L 9.586879742431641 0.9061830000000002 L 9.361039742431641 0.9061830000000002 L 9.361039742431641 2.220446049250313e-16 L 9.572764742431643 2.220446049250313e-16 L 9.774609242431643 0.4841445000000002 L 9.774609242431643 2.220446049250313e-16 M 10.659648000000002 2.220446049250313e-16 L 10.659648000000002 0.17643750000000014 L 10.484622000000002 0.17643750000000014 L 10.484622000000002 0.9061830000000002 L 10.237609500000001 0.9061830000000002 L 10.237609500000001 0.17643750000000014 L 10.063995000000002 0.17643750000000014 L 10.063995000000002 2.220446049250313e-16 L 10.659648000000002 2.220446049250313e-16 M 10.970187648925783 0.7297455000000002 L 11.279306148925784 0.7297455000000002 L 11.279306148925784 0.9061830000000002 L 10.723175148925783 0.9061830000000002 L 10.723175148925783 2.220446049250313e-16 L 11.266602648925783 2.220446049250313e-16 L 11.266602648925783 0.17643750000000014 L 10.970187648925783 0.17643750000000014 L 10.970187648925783 0.3613440000000002 L 11.225669148925784 0.3613440000000002 L 11.225669148925784 0.5377815000000001 L 10.970187648925783 0.5377815000000001 L 10.970187648925783 0.7297455000000002 M 11.603915310058596 0.5843610000000001 L 11.603915310058596 0.9061830000000002 L 11.356902810058596 0.9061830000000002 L 11.356902810058596 2.220446049250313e-16 L 11.776118310058596 2.220446049250313e-16 Q 11.983608810058596 2.220446049250313e-16 11.983608810058596 0.17502600000000024 L 11.983608810058596 0.40933500000000017 Q 11.983608810058596 0.5434275000000002 11.862219810058596 0.5744805000000002 L 12.028776810058597 0.9061830000000002 L 11.763414810058597 0.9061830000000002 L 11.619441810058596 0.5843610000000001 L 11.603915310058596 0.5843610000000001 M 11.701308810058597 0.17643750000000014 L 11.603915310058596 0.17643750000000014 L 11.603915310058596 0.41639250000000017 L 11.701308810058597 0.41639250000000017 Q 11.736596310058596 0.41639250000000017 11.736596310058596 0.38533950000000017 L 11.736596310058596 0.20749050000000013 Q 11.736596310058596 0.17643750000000014 11.701308810058597 0.17643750000000014 M 12.08238141723633 2.220446049250313e-16 L 12.329393917236331 2.220446049250313e-16 L 12.329393917236331 0.9061830000000002 L 12.08238141723633 0.9061830000000002 L 12.08238141723633 2.220446049250313e-16 M 12.645576809326174 2.220446049250313e-16 L 12.854478809326174 2.220446049250313e-16 Q 13.061969309326175 2.220446049250313e-16 13.061969309326175 0.17502600000000024 L 13.061969309326175 0.7311570000000002 Q 13.061969309326175 0.9061830000000002 12.854478809326174 0.9061830000000002 L 12.645576809326174 0.9061830000000002 Q 12.438086309326176 0.9061830000000002 12.438086309326176 0.7311570000000002 L 12.438086309326176 0.17502600000000024 Q 12.438086309326176 2.220446049250313e-16 12.645576809326174 2.220446049250313e-16 M 12.814956809326175 0.6986925000000002 L 12.814956809326175 0.20749050000000013 Q 12.814956809326175 0.17643750000000014 12.779669309326176 0.17643750000000014 L 12.720386309326175 0.17643750000000014 Q 12.685098809326176 0.17643750000000014 12.685098809326176 0.20749050000000013 L 12.685098809326176 0.6986925000000002 Q 12.685098809326176 0.7297455000000002 12.720386309326175 0.7297455000000002 L 12.779669309326176 0.7297455000000002 Q 12.814956809326175 0.7297455000000002 12.814956809326175 0.6986925000000002 M 13.417654903564456 0.5843610000000001 L 13.417654903564456 0.9061830000000002 L 13.170642403564456 0.9061830000000002 L 13.170642403564456 2.220446049250313e-16 L 13.589857903564456 2.220446049250313e-16 Q 13.797348403564456 2.220446049250313e-16 13.797348403564456 0.17502600000000024 L 13.797348403564456 0.40933500000000017 Q 13.797348403564456 0.5434275000000002 13.675959403564455 0.5744805000000002 L 13.842516403564456 0.9061830000000002 L 13.577154403564457 0.9061830000000002 L 13.433181403564456 0.5843610000000001 L 13.417654903564456 0.5843610000000001 M 13.515048403564457 0.17643750000000014 L 13.417654903564456 0.17643750000000014 L 13.417654903564456 0.41639250000000017 L 13.515048403564457 0.41639250000000017 Q 13.550335903564456 0.41639250000000017 13.550335903564456 0.38533950000000017 L 13.550335903564456 0.20749050000000013 Q 13.550335903564456 0.17643750000000014 13.515048403564457 0.17643750000000014 M 14.24335001074219 0.6986925000000002 L 14.24335001074219 0.5702460000000003 Q 14.24335001074219 0.5391930000000003 14.20806251074219 0.5391930000000003 L 14.07255851074219 0.5391930000000003 Q 13.968107510742191 0.5391930000000003 13.92505676074219 0.4933192500000002 Q 13.88200601074219 0.44744550000000016 13.88200601074219 0.3613440000000002 L 13.88200601074219 0.17502600000000024 Q 13.88200601074219 2.220446049250313e-16 14.08808501074219 2.220446049250313e-16 L 14.28146051074219 2.220446049250313e-16 Q 14.487539510742192 2.220446049250313e-16 14.487539510742192 0.17502600000000024 L 14.487539510742192 0.2837115000000002 L 14.240527010742191 0.2837115000000002 L 14.240527010742191 0.20749050000000013 Q 14.240527010742191 0.17643750000000014 14.20523951074219 0.17643750000000014 L 14.164306010742191 0.17643750000000014 Q 14.12901851074219 0.17643750000000014 14.12901851074219 0.20749050000000013 L 14.12901851074219 0.3415830000000002 Q 14.12901851074219 0.3726360000000002 14.164306010742191 0.3726360000000002 L 14.29698701074219 0.3726360000000002 Q 14.40143801074219 0.3726360000000002 14.44590026074219 0.41639250000000017 Q 14.490362510742191 0.4601490000000002 14.490362510742191 0.5448390000000002 L 14.490362510742191 0.7311570000000002 Q 14.490362510742191 0.9061830000000002 14.28428351074219 0.9061830000000002 L 14.092319510742191 0.9061830000000002 Q 13.884829010742191 0.9061830000000002 13.884829010742191 0.7311570000000002 L 13.884829010742191 0.6224715000000002 L 14.131841510742191 0.6224715000000002 L 14.131841510742191 0.6986925000000002 Q 14.131841510742191 0.7297455000000002 14.16712901074219 0.7297455000000002 L 14.20806251074219 0.7297455000000002 Q 14.24335001074219 0.7297455000000002 14.24335001074219 0.6986925000000002" fill="#574848" fill-rule="nonzero"></path></g><g><path d=" M 0.025019531249999998 1.4174269584960937 L 0.025019531249999998 1.2632440971679686 L 0.493197509765625 1.2632440971679686 L 0.493197509765625 1.4174269584960937 L 0.45785742187499995 1.4174269584960937 L 0.45785742187499995 1.2988969291992185 L 0.27865502929687497 1.2988969291992185 L 0.27865502929687497 1.6576144584960937 L 0.37466748046875 1.6576144584960937 L 0.37466748046875 1.6929545463867186 L 0.14354956054687498 1.6929545463867186 L 0.14354956054687498 1.6576144584960937 L 0.23956201171875 1.6576144584960937 L 0.23956201171875 1.2988969291992185 L 0.060359619140624994 1.2988969291992185 L 0.060359619140624994 1.4174269584960937 L 0.025019531249999998 1.4174269584960937 M 0.5413726171875 1.3952221245117187 L 0.6508330664062499 1.3952221245117187 L 0.6508330664062499 1.6576144584960937 L 0.7215132421875 1.6576144584960937 L 0.7215132421875 1.6929545463867186 L 0.5413726171875 1.6929545463867186 L 0.5413726171875 1.6576144584960937 L 0.6117400488281249 1.6576144584960937 L 0.6117400488281249 1.4302494682617186 L 0.5413726171875 1.4302494682617186 L 0.5413726171875 1.3952221245117187 M 0.5920371679687499 1.3117194389648437 Q 0.5920371679687499 1.3045263237304687 0.5946954931640624 1.2981150688476562 Q 0.597353818359375 1.2917038139648436 0.60204498046875 1.2870126518554685 Q 0.606736142578125 1.2823214897460935 0.612991025390625 1.2795067924804686 Q 0.619245908203125 1.2766920952148437 0.6264390234375 1.2766920952148437 Q 0.633632138671875 1.2766920952148437 0.6400433935546874 1.2795067924804686 Q 0.6464546484375 1.2823214897460935 0.6513021826171874 1.2870126518554685 Q 0.656149716796875 1.2917038139648436 0.6589644140625 1.2981150688476562 Q 0.661779111328125 1.3045263237304687 0.661779111328125 1.3117194389648437 Q 0.661779111328125 1.3189125541992186 0.6589644140625 1.3253238090820312 Q 0.656149716796875 1.3317350639648438 0.6513021826171874 1.3364262260742186 Q 0.6464546484375 1.3411173881835936 0.6400433935546874 1.3437757133789061 Q 0.633632138671875 1.3464340385742186 0.6264390234375 1.3464340385742186 Q 0.619245908203125 1.3464340385742186 0.612991025390625 1.3437757133789061 Q 0.606736142578125 1.3411173881835936 0.60204498046875 1.3364262260742186 Q 0.597353818359375 1.3317350639648438 0.5946954931640624 1.3253238090820312 Q 0.5920371679687499 1.3189125541992186 0.5920371679687499 1.3117194389648437 M 1.2747701367187498 1.6576144584960937 L 1.345137568359375 1.6576144584960937 L 1.345137568359375 1.5003041557617185 Q 1.345137568359375 1.4765356010742186 1.3391954296875 1.4610547661132811 Q 1.333253291015625 1.4455739311523437 1.32230724609375 1.4365043510742186 Q 1.311361201171875 1.4274347709960935 1.2958803662109375 1.423838213378906 Q 1.28039953125 1.4202416557617186 1.261322138671875 1.4202416557617186 Q 1.2409937695312498 1.4202416557617186 1.2216036328125 1.4264965385742185 Q 1.20221349609375 1.4327514213867185 1.184387080078125 1.4424464897460936 Q 1.1665606640625 1.4521415581054686 1.151236201171875 1.463556719238281 Q 1.13591173828125 1.4749718803710936 1.124340205078125 1.4852924370117186 L 1.124340205078125 1.4887326225585937 L 1.124340205078125 1.6576144584960937 L 1.19470763671875 1.6576144584960937 L 1.19470763671875 1.6929545463867186 L 1.014879755859375 1.6929545463867186 L 1.014879755859375 1.6576144584960937 L 1.0852471875 1.6576144584960937 L 1.0852471875 1.5003041557617185 Q 1.0852471875 1.4765356010742186 1.079305048828125 1.4610547661132811 Q 1.0733629101562498 1.4455739311523437 1.0622604931640625 1.4365043510742186 Q 1.051158076171875 1.4274347709960935 1.0356772412109374 1.423838213378906 Q 1.02019640625 1.4202416557617186 1.0014317578125 1.4202416557617186 Q 0.980477900390625 1.4202416557617186 0.96077501953125 1.4264965385742185 Q 0.941072138671875 1.4327514213867185 0.9234020947265624 1.4421337456054686 Q 0.90573205078125 1.4515160698242187 0.89072033203125 1.462931230957031 Q 0.8757086132812499 1.4743463920898436 0.864137080078125 1.4846669487304687 L 0.864137080078125 1.6576144584960937 L 0.934817255859375 1.6576144584960937 L 0.934817255859375 1.6929545463867186 L 0.754676630859375 1.6929545463867186 L 0.754676630859375 1.6576144584960937 L 0.8250440625 1.6576144584960937 L 0.8250440625 1.4302494682617186 L 0.754676630859375 1.4302494682617186 L 0.754676630859375 1.3952221245117187 L 0.864137080078125 1.3952221245117187 L 0.864137080078125 1.4483886284179686 Q 0.8788360546875 1.4355661186523436 0.895411494140625 1.4239945854492186 Q 0.91198693359375 1.4124230522460937 0.930438837890625 1.4038225883789062 Q 0.9488907421875 1.3952221245117187 0.9690627392578125 1.390061846191406 Q 0.989234736328125 1.3849015678710936 1.0114395703125 1.3849015678710936 Q 1.0561619824218749 1.3849015678710936 1.082745234375 1.402571611816406 Q 1.109328486328125 1.4202416557617186 1.1190235546875 1.4515160698242187 Q 1.133722529296875 1.4390063041992187 1.151236201171875 1.4269656547851561 Q 1.168749873046875 1.4149250053710936 1.1882963818359376 1.4055426811523435 Q 1.207842890625 1.3961603569335936 1.2289531201171875 1.3905309624023436 Q 1.250063349609375 1.3849015678710936 1.2716426953125 1.3849015678710936 Q 1.29978966796875 1.3849015678710936 1.3208998974609374 1.3922510551757812 Q 1.342010126953125 1.3996005424804685 1.35608361328125 1.4130485405273436 Q 1.3701570996093748 1.4264965385742185 1.3771938427734374 1.445730303222656 Q 1.3842305859375 1.4649640678710936 1.3842305859375 1.4887326225585937 L 1.3842305859375 1.6576144584960937 L 1.45491076171875 1.6576144584960937 L 1.45491076171875 1.6929545463867186 L 1.2747701367187498 1.6929545463867186 L 1.2747701367187498 1.6576144584960937 M 1.8192701953125 1.5290766166992187 Q 1.8177064746093747 1.5078100151367186 1.8095751269531248 1.4887326225585937 Q 1.801443779296875 1.4696552299804686 1.785181083984375 1.4551126274414061 Q 1.768918388671875 1.4405700249023436 1.7442116015624998 1.4319695610351562 Q 1.7195048144531249 1.4233690971679687 1.68479021484375 1.4233690971679687 Q 1.6522648242187499 1.4233690971679687 1.62724529296875 1.4319695610351562 Q 1.6022257617187499 1.4405700249023436 1.58471208984375 1.4551126274414061 Q 1.56719841796875 1.4696552299804686 1.5571906054687499 1.4887326225585937 Q 1.5471827929687498 1.5078100151367186 1.544368095703125 1.5290766166992187 L 1.8192701953125 1.5290766166992187 M 1.6841647265625 1.7007731499023435 Q 1.6431952441406248 1.7007731499023435 1.6098879931640624 1.6899834770507811 Q 1.5765807421874998 1.6791938041992187 1.5531249316406248 1.659021807128906 Q 1.5296691210937499 1.6388498100585935 1.516846611328125 1.6100773491210936 Q 1.5040241015624998 1.5813048881835936 1.5040241015624998 1.5456520561523437 Q 1.5040241015624998 1.5109374565429685 1.517472099609375 1.4820086235351562 Q 1.5309200976562498 1.4530797905273436 1.555001396484375 1.4322823051757811 Q 1.5790826953125 1.4114848198242187 1.61223357421875 1.400069658691406 Q 1.645384453125 1.3886544975585937 1.68479021484375 1.3886544975585937 Q 1.7257596972656248 1.3886544975585937 1.7582850878906249 1.4002260307617187 Q 1.790810478515625 1.4117975639648437 1.813328056640625 1.433533281738281 Q 1.835845634765625 1.4552689995117185 1.8477299121093749 1.4862306694335936 Q 1.8596141894531248 1.5171923393554687 1.8596141894531248 1.5559726127929685 L 1.8596141894531248 1.5628529838867187 L 1.544368095703125 1.5628529838867187 Q 1.5465573046874999 1.5866215385742186 1.5567214892578123 1.6056989311523435 Q 1.566885673828125 1.6247763237304687 1.58471208984375 1.6382243217773436 Q 1.6025385058593749 1.6516723198242187 1.6274016650390624 1.6588654350585936 Q 1.6522648242187499 1.6660585502929686 1.6841647265625 1.6660585502929686 Q 1.7148136523437498 1.6660585502929686 1.7374876025390624 1.6610546440429685 Q 1.7601615527343748 1.6560507377929685 1.7759551318359375 1.6476066459960936 Q 1.7917487109374999 1.6391625541992185 1.8016001513671873 1.6285292534179687 Q 1.811451591796875 1.6178959526367187 1.8167682421875 1.6066371635742187 L 1.855861259765625 1.6066371635742187 Q 1.8374093554687498 1.6541742729492186 1.7931560595703124 1.6774737114257812 Q 1.7489027636718748 1.7007731499023435 1.6841647265625 1.7007731499023435 M 1.8912138574218749 1.2632440971679686 L 2.000674306640625 1.2632440971679686 L 2.000674306640625 1.5956911186523437 Q 2.000674306640625 1.6144557670898436 2.003801748046875 1.6261836723632812 Q 2.0069291894531247 1.6379115776367186 2.0136531884765625 1.6443228325195312 Q 2.0203771875 1.6507340874023435 2.0311668603515622 1.6529232963867186 Q 2.0419565332031246 1.6551125053710936 2.056968251953125 1.6551125053710936 L 2.0876171777343746 1.6551125053710936 L 2.0876171777343746 1.6929545463867186 L 2.057593740234375 1.6929545463867186 Q 2.032574208984375 1.6929545463867186 2.014435048828125 1.6884197563476562 Q 1.996295888671875 1.6838849663085935 1.9845679833984373 1.6726261772460935 Q 1.972840078125 1.6613673881835935 1.9672106835937497 1.642446367675781 Q 1.9615812890624997 1.6235253471679687 1.9615812890624997 1.5944401420898435 L 1.9615812890624997 1.2982714409179685 L 1.8912138574218749 1.2982714409179685 L 1.8912138574218749 1.2632440971679686 M 2.45103837890625 1.5290766166992187 Q 2.449474658203125 1.5078100151367186 2.441343310546875 1.4887326225585937 Q 2.433211962890625 1.4696552299804686 2.416949267578125 1.4551126274414061 Q 2.400686572265625 1.4405700249023436 2.37597978515625 1.4319695610351562 Q 2.351272998046875 1.4233690971679687 2.3165583984375 1.4233690971679687 Q 2.2840330078125 1.4233690971679687 2.2590134765625 1.4319695610351562 Q 2.2339939453125 1.4405700249023436 2.2164802734375 1.4551126274414061 Q 2.1989666015625 1.4696552299804686 2.1889587890625 1.4887326225585937 Q 2.1789509765625 1.5078100151367186 2.176136279296875 1.5290766166992187 L 2.45103837890625 1.5290766166992187 M 2.31593291015625 1.7007731499023435 Q 2.274963427734375 1.7007731499023435 2.2416561767578123 1.6899834770507811 Q 2.20834892578125 1.6791938041992187 2.184893115234375 1.659021807128906 Q 2.1614373046875 1.6388498100585935 2.148614794921875 1.6100773491210936 Q 2.13579228515625 1.5813048881835936 2.13579228515625 1.5456520561523437 Q 2.13579228515625 1.5109374565429685 2.1492402832031248 1.4820086235351562 Q 2.16268828125 1.4530797905273436 2.186769580078125 1.4322823051757811 Q 2.2108508789062498 1.4114848198242187 2.2440017578124998 1.400069658691406 Q 2.27715263671875 1.3886544975585937 2.3165583984375 1.3886544975585937 Q 2.357527880859375 1.3886544975585937 2.390053271484375 1.4002260307617187 Q 2.422578662109375 1.4117975639648437 2.445096240234375 1.433533281738281 Q 2.467613818359375 1.4552689995117185 2.479498095703125 1.4862306694335936 Q 2.491382373046875 1.5171923393554687 2.491382373046875 1.5559726127929685 L 2.491382373046875 1.5628529838867187 L 2.176136279296875 1.5628529838867187 Q 2.17832548828125 1.5866215385742186 2.1884896728515626 1.6056989311523435 Q 2.198653857421875 1.6247763237304687 2.2164802734375 1.6382243217773436 Q 2.234306689453125 1.6516723198242187 2.2591698486328124 1.6588654350585936 Q 2.2840330078125 1.6660585502929686 2.31593291015625 1.6660585502929686 Q 2.3465818359375 1.6660585502929686 2.3692557861328125 1.6610546440429685 Q 2.391929736328125 1.6560507377929685 2.4077233154296875 1.6476066459960936 Q 2.42351689453125 1.6391625541992185 2.4333683349609374 1.6285292534179687 Q 2.443219775390625 1.6178959526367187 2.44853642578125 1.6066371635742187 L 2.487629443359375 1.6066371635742187 Q 2.4691775390624997 1.6541742729492186 2.4249242431640625 1.6774737114257812 Q 2.380670947265625 1.7007731499023435 2.31593291015625 1.7007731499023435 M 2.5639515234375003 1.6929545463867186 L 2.5639515234375003 1.5834940971679685 L 2.5989788671875003 1.5834940971679685 L 2.5989788671875003 1.6025714897460936 Q 2.5989788671875003 1.6197724174804686 2.610706772460938 1.6321258110351562 Q 2.622434677734375 1.6444792045898435 2.64088658203125 1.652454180175781 Q 2.6593384863281253 1.6604291557617186 2.6816996923828125 1.6641820854492186 Q 2.7040608984375 1.6679350151367187 2.7253275 1.6679350151367187 Q 2.75034703125 1.6679350151367187 2.7713008886718753 1.6652766899414062 Q 2.79225474609375 1.6626183647460937 2.807579208984375 1.6563634819335935 Q 2.8229036718750002 1.6501085991210935 2.831347763671875 1.639944414550781 Q 2.83979185546875 1.6297802299804687 2.83979185546875 1.6147685112304686 Q 2.83979185546875 1.6006950249023437 2.8321296240234375 1.590843584472656 Q 2.824467392578125 1.5809921440429686 2.811488510742188 1.5744245170898437 Q 2.7985096289062503 1.5678568901367187 2.7811523291015625 1.5634784721679686 Q 2.763795029296875 1.5591000541992186 2.7442485205078126 1.5558162407226561 Q 2.72470201171875 1.5525324272460936 2.7040608984375 1.5495613579101561 Q 2.68341978515625 1.5465902885742187 2.6638732763671875 1.5423682426757812 Q 2.644326767578125 1.5381461967773435 2.6269694677734376 1.5322040581054686 Q 2.6096121679687503 1.5262619194335936 2.5966332861328127 1.517035967285156 Q 2.583654404296875 1.5078100151367186 2.5759921728515627 1.4946747612304687 Q 2.56832994140625 1.4815395073242186 2.56832994140625 1.4630876030273436 Q 2.56832994140625 1.4393190483398437 2.58021421875 1.4241509575195312 Q 2.59209849609375 1.4089828666992186 2.611175888671875 1.4002260307617187 Q 2.6302532812500004 1.3914691948242186 2.6544909521484374 1.3881853813476561 Q 2.678728623046875 1.3849015678710936 2.70343541015625 1.3849015678710936 Q 2.7394009863281252 1.3849015678710936 2.7694244238281254 1.3930329155273435 Q 2.799447861328125 1.4011642631835937 2.820088974609375 1.4142995170898436 L 2.820088974609375 1.3952221245117187 L 2.855116318359375 1.3952221245117187 L 2.855116318359375 1.4956129936523437 L 2.820088974609375 1.4956129936523437 L 2.820088974609375 1.4724699272460937 Q 2.820088974609375 1.4624621147460937 2.81477232421875 1.4544871391601562 Q 2.809455673828125 1.4465121635742186 2.8003860937500002 1.440413652832031 Q 2.791316513671875 1.4343151420898437 2.77974498046875 1.4300930961914062 Q 2.768173447265625 1.4258710502929686 2.7555073095703126 1.423212725097656 Q 2.7428411718750003 1.4205543999023436 2.7301750341796875 1.4193034233398436 Q 2.717508896484375 1.4180524467773437 2.7065628515625 1.4180524467773437 Q 2.65714927734375 1.4180524467773437 2.6319733740234375 1.4277475151367187 Q 2.606797470703125 1.4374425834960936 2.606797470703125 1.4630876030273436 Q 2.606797470703125 1.4752846245117186 2.6144597021484377 1.483572344238281 Q 2.6221219335937502 1.4918600639648436 2.6351008154296878 1.4976458305664062 Q 2.6480796972656253 1.5034315971679686 2.6654369970703127 1.507340898925781 Q 2.682794296875 1.5112502006835937 2.7023408056640625 1.5145340141601562 Q 2.721887314453125 1.5178178276367187 2.742528427734375 1.5211016411132812 Q 2.763169541015625 1.5243854545898436 2.7827160498046877 1.529232988769531 Q 2.80226255859375 1.5340805229492187 2.8196198583984375 1.5409608940429687 Q 2.8369771582031253 1.5478412651367186 2.8499560400390624 1.558005449707031 Q 2.862934921875 1.5681696342773437 2.8705971533203125 1.5825558647460936 Q 2.878259384765625 1.5969420952148436 2.878259384765625 1.6166449760742185 Q 2.878259384765625 1.6338459038085935 2.8716917578125 1.6466684135742187 Q 2.865124130859375 1.6594909233398436 2.8541780859375 1.669029619628906 Q 2.843232041015625 1.6785683159179685 2.8290021826171876 1.6848231987304687 Q 2.81477232421875 1.6910780815429687 2.7991351171875003 1.6946746391601561 Q 2.78349791015625 1.6982711967773436 2.767547958984375 1.6998349174804686 Q 2.7515980078125 1.7013986381835937 2.7375245214843753 1.7013986381835937 Q 2.690612900390625 1.7013986381835937 2.6560546728515626 1.6913908256835937 Q 2.6214964453125003 1.6813830131835936 2.5989788671875003 1.6654330620117186 L 2.5989788671875003 1.6929545463867186 L 2.5639515234375003 1.6929545463867186 M 2.9420716992187503 1.6929545463867186 L 2.9420716992187503 1.5834940971679685 L 2.9770990429687503 1.5834940971679685 L 2.9770990429687503 1.6025714897460936 Q 2.9770990429687503 1.6197724174804686 2.988826948242188 1.6321258110351562 Q 3.000554853515625 1.6444792045898435 3.0190067578125 1.652454180175781 Q 3.0374586621093753 1.6604291557617186 3.0598198681640625 1.6641820854492186 Q 3.08218107421875 1.6679350151367187 3.10344767578125 1.6679350151367187 Q 3.12846720703125 1.6679350151367187 3.1494210644531253 1.6652766899414062 Q 3.170374921875 1.6626183647460937 3.185699384765625 1.6563634819335935 Q 3.2010238476562503 1.6501085991210935 3.209467939453125 1.639944414550781 Q 3.21791203125 1.6297802299804687 3.21791203125 1.6147685112304686 Q 3.21791203125 1.6006950249023437 3.2102497998046875 1.590843584472656 Q 3.202587568359375 1.5809921440429686 3.189608686523438 1.5744245170898437 Q 3.1766298046875003 1.5678568901367187 3.1592725048828125 1.5634784721679686 Q 3.141915205078125 1.5591000541992186 3.1223686962890627 1.5558162407226561 Q 3.1028221875 1.5525324272460936 3.08218107421875 1.5495613579101561 Q 3.0615399609375 1.5465902885742187 3.0419934521484375 1.5423682426757812 Q 3.022446943359375 1.5381461967773435 3.0050896435546877 1.5322040581054686 Q 2.9877323437500003 1.5262619194335936 2.9747534619140628 1.517035967285156 Q 2.961774580078125 1.5078100151367186 2.9541123486328127 1.4946747612304687 Q 2.9464501171875 1.4815395073242186 2.9464501171875 1.4630876030273436 Q 2.9464501171875 1.4393190483398437 2.95833439453125 1.4241509575195312 Q 2.970218671875 1.4089828666992186 2.989296064453125 1.4002260307617187 Q 3.0083734570312504 1.3914691948242186 3.0326111279296875 1.3881853813476561 Q 3.056848798828125 1.3849015678710936 3.0815555859375 1.3849015678710936 Q 3.1175211621093752 1.3849015678710936 3.1475445996093754 1.3930329155273435 Q 3.177568037109375 1.4011642631835937 3.198209150390625 1.4142995170898436 L 3.198209150390625 1.3952221245117187 L 3.233236494140625 1.3952221245117187 L 3.233236494140625 1.4956129936523437 L 3.198209150390625 1.4956129936523437 L 3.198209150390625 1.4724699272460937 Q 3.198209150390625 1.4624621147460937 3.1928925 1.4544871391601562 Q 3.187575849609375 1.4465121635742186 3.1785062695312503 1.440413652832031 Q 3.169436689453125 1.4343151420898437 3.15786515625 1.4300930961914062 Q 3.146293623046875 1.4258710502929686 3.1336274853515627 1.423212725097656 Q 3.1209613476562503 1.4205543999023436 3.1082952099609376 1.4193034233398436 Q 3.0956290722656252 1.4180524467773437 3.08468302734375 1.4180524467773437 Q 3.035269453125 1.4180524467773437 3.0100935498046875 1.4277475151367187 Q 2.984917646484375 1.4374425834960936 2.984917646484375 1.4630876030273436 Q 2.984917646484375 1.4752846245117186 2.9925798779296877 1.483572344238281 Q 3.0002421093750002 1.4918600639648436 3.013220991210938 1.4976458305664062 Q 3.0261998730468753 1.5034315971679686 3.0435571728515627 1.507340898925781 Q 3.06091447265625 1.5112502006835937 3.0804609814453126 1.5145340141601562 Q 3.100007490234375 1.5178178276367187 3.120648603515625 1.5211016411132812 Q 3.141289716796875 1.5243854545898436 3.1608362255859377 1.529232988769531 Q 3.180382734375 1.5340805229492187 3.1977400341796876 1.5409608940429687 Q 3.2150973339843754 1.5478412651367186 3.2280762158203125 1.558005449707031 Q 3.24105509765625 1.5681696342773437 3.2487173291015625 1.5825558647460936 Q 3.256379560546875 1.5969420952148436 3.256379560546875 1.6166449760742185 Q 3.256379560546875 1.6338459038085935 3.24981193359375 1.6466684135742187 Q 3.243244306640625 1.6594909233398436 3.23229826171875 1.669029619628906 Q 3.221352216796875 1.6785683159179685 3.2071223583984376 1.6848231987304687 Q 3.1928925 1.6910780815429687 3.1772552929687503 1.6946746391601561 Q 3.1616180859375 1.6982711967773436 3.145668134765625 1.6998349174804686 Q 3.12971818359375 1.7013986381835937 3.1156446972656253 1.7013986381835937 Q 3.068733076171875 1.7013986381835937 3.0341748486328126 1.6913908256835937 Q 2.9996166210937503 1.6813830131835936 2.9770990429687503 1.6654330620117186 L 2.9770990429687503 1.6929545463867186 L 2.9420716992187503 1.6929545463867186 M 4.005426796875 1.3917819389648436 L 4.005426796875 1.2998351616210937 L 3.695497353515625 1.2998351616210937 L 3.695497353515625 1.4477631401367186 L 3.9341211328125 1.4477631401367186 L 3.9341211328125 1.4840414604492187 L 3.695497353515625 1.4840414604492187 L 3.695497353515625 1.6563634819335935 L 4.00980521484375 1.6563634819335935 L 4.00980521484375 1.5578490776367186 L 4.045145302734374 1.5578490776367186 L 4.045145302734374 1.6929545463867186 L 3.5666467675781246 1.6929545463867186 L 3.5666467675781246 1.6576144584960937 L 3.6564043359375 1.6576144584960937 L 3.6564043359375 1.2982714409179685 L 3.5666467675781246 1.2982714409179685 L 3.5666467675781246 1.2632440971679686 L 4.040454140625 1.2632440971679686 L 4.040454140625 1.3917819389648436 L 4.005426796875 1.3917819389648436 M 4.09206943359375 1.2632440971679686 L 4.201529882812499 1.2632440971679686 L 4.201529882812499 1.5956911186523437 Q 4.201529882812499 1.6144557670898436 4.20465732421875 1.6261836723632812 Q 4.207784765624999 1.6379115776367186 4.214508764648437 1.6443228325195312 Q 4.221232763671875 1.6507340874023435 4.232022436523437 1.6529232963867186 Q 4.2428121093749995 1.6551125053710936 4.257823828125 1.6551125053710936 L 4.28847275390625 1.6551125053710936 L 4.28847275390625 1.6929545463867186 L 4.258449316406249 1.6929545463867186 Q 4.2334297851562495 1.6929545463867186 4.215290625 1.6884197563476562 Q 4.197151464843749 1.6838849663085935 4.185423559570312 1.6726261772460935 Q 4.173695654296875 1.6613673881835935 4.168066259765625 1.642446367675781 Q 4.162436865234374 1.6235253471679687 4.162436865234374 1.5944401420898435 L 4.162436865234374 1.2982714409179685 L 4.09206943359375 1.2982714409179685 L 4.09206943359375 1.2632440971679686 M 4.651893955078124 1.5290766166992187 Q 4.650330234375 1.5078100151367186 4.64219888671875 1.4887326225585937 Q 4.6340675390624995 1.4696552299804686 4.617804843749999 1.4551126274414061 Q 4.601542148437499 1.4405700249023436 4.576835361328125 1.4319695610351562 Q 4.55212857421875 1.4233690971679687 4.517413974609374 1.4233690971679687 Q 4.484888583984374 1.4233690971679687 4.4598690527343745 1.4319695610351562 Q 4.434849521484375 1.4405700249023436 4.417335849609374 1.4551126274414061 Q 4.399822177734374 1.4696552299804686 4.389814365234375 1.4887326225585937 Q 4.379806552734374 1.5078100151367186 4.3769918554687495 1.5290766166992187 L 4.651893955078124 1.5290766166992187 M 4.5167884863281245 1.7007731499023435 Q 4.475819003906249 1.7007731499023435 4.442511752929687 1.6899834770507811 Q 4.409204501953124 1.6791938041992187 4.385748691406249 1.659021807128906 Q 4.362292880859375 1.6388498100585935 4.34947037109375 1.6100773491210936 Q 4.3366478613281245 1.5813048881835936 4.3366478613281245 1.5456520561523437 Q 4.3366478613281245 1.5109374565429685 4.350095859374999 1.4820086235351562 Q 4.363543857421875 1.4530797905273436 4.3876251562499995 1.4322823051757811 Q 4.411706455078124 1.4114848198242187 4.444857333984374 1.400069658691406 Q 4.478008212890624 1.3886544975585937 4.517413974609374 1.3886544975585937 Q 4.558383457031249 1.3886544975585937 4.59090884765625 1.4002260307617187 Q 4.623434238281249 1.4117975639648437 4.645951816406249 1.433533281738281 Q 4.668469394531249 1.4552689995117185 4.680353671874999 1.4862306694335936 Q 4.692237949218749 1.5171923393554687 4.692237949218749 1.5559726127929685 L 4.692237949218749 1.5628529838867187 L 4.3769918554687495 1.5628529838867187 Q 4.379181064453125 1.5866215385742186 4.389345249023437 1.6056989311523435 Q 4.3995094335937495 1.6247763237304687 4.417335849609374 1.6382243217773436 Q 4.435162265624999 1.6516723198242187 4.460025424804687 1.6588654350585936 Q 4.484888583984374 1.6660585502929686 4.5167884863281245 1.6660585502929686 Q 4.547437412109375 1.6660585502929686 4.5701113623046865 1.6610546440429685 Q 4.592785312499999 1.6560507377929685 4.608578891601562 1.6476066459960936 Q 4.624372470703125 1.6391625541992185 4.634223911132812 1.6285292534179687 Q 4.644075351562499 1.6178959526367187 4.6493920019531245 1.6066371635742187 L 4.6884850195312495 1.6066371635742187 Q 4.670033115234374 1.6541742729492186 4.6257798193359365 1.6774737114257812 Q 4.5815265234375 1.7007731499023435 4.5167884863281245 1.7007731499023435 M 4.930561494140624 1.8224306206054686 Q 4.885839082031249 1.8224306206054686 4.848153413085937 1.8136737846679687 Q 4.810467744140625 1.8049169487304686 4.78200802734375 1.7908434624023437 L 4.799834443359375 1.7564416069335935 Q 4.805463837890625 1.7598817924804686 4.8154716503906245 1.765042070800781 Q 4.825479462890625 1.7702023491210936 4.841116669921875 1.775362627441406 Q 4.856753876953125 1.7805229057617187 4.878802338867187 1.7841194633789061 Q 4.9008508007812495 1.7877160209960936 4.930561494140624 1.7877160209960936 Q 4.9624613964843745 1.7877160209960936 4.98591720703125 1.7830248588867186 Q 5.009373017578125 1.7783336967773435 5.026104829101562 1.770045977050781 Q 5.042836640625 1.7617582573242185 5.053313569335937 1.7506558403320311 Q 5.063790498046875 1.7395534233398435 5.069889008789062 1.7267309135742186 Q 5.07598751953125 1.7139084038085937 5.078176728515625 1.6998349174804686 Q 5.0803659375 1.6857614311523437 5.0803659375 1.6716879448242186 L 5.0803659375 1.6494831108398436 Q 5.065666962890624 1.6610546440429685 5.04971701171875 1.6705933403320312 Q 5.033767060546874 1.6801320366210937 5.015471528320312 1.6870124077148436 Q 4.997175996093749 1.6938927788085936 4.976378510742187 1.6976457084960936 Q 4.955581025390624 1.7013986381835937 4.931186982421875 1.7013986381835937 Q 4.898661591796874 1.7013986381835937 4.867856293945312 1.691859941894531 Q 4.837050996093749 1.6823212456054686 4.813282441406249 1.6626183647460937 Q 4.7895138867187494 1.6429154838867186 4.77512765625 1.6128920463867187 Q 4.76074142578125 1.5828686088867185 4.76074142578125 1.5418991264648436 Q 4.76074142578125 1.5024933647460936 4.774971284179687 1.4734081596679687 Q 4.789201142578125 1.4443229545898437 4.8139079296875 1.425089189941406 Q 4.838614716796875 1.4058554252929687 4.871765595703125 1.3963167290039062 Q 4.904916474609375 1.3867780327148436 4.942758515625 1.3867780327148436 Q 4.961835908203125 1.3867780327148436 4.980287812499999 1.389749102050781 Q 4.998739716796875 1.3927201713867186 5.016253388671875 1.3980368217773436 Q 5.033767060546874 1.4033534721679686 5.0500297558593745 1.4103902153320311 Q 5.066292451171875 1.4174269584960937 5.0803659375 1.4252455620117186 L 5.0803659375 1.3952221245117187 L 5.1898263867187495 1.3952221245117187 L 5.1898263867187495 1.4302494682617186 L 5.119458955078125 1.4302494682617186 L 5.119458955078125 1.6704369682617186 Q 5.119458955078125 1.7042133354492186 5.108512910156249 1.7320475639648436 Q 5.097566865234374 1.7598817924804686 5.074580170898437 1.780053789550781 Q 5.051593476562499 1.8002257866210936 5.015784272460937 1.8113282036132812 Q 4.979975068359375 1.8224306206054686 4.930561494140624 1.8224306206054686 M 4.940256562499999 1.6679350151367187 Q 4.96339962890625 1.6679350151367187 4.983884370117187 1.662461992675781 Q 5.004369111328124 1.6569889702148437 5.022039155273437 1.6482321342773436 Q 5.039709199218749 1.6394752983398435 5.054251801757812 1.6288419975585937 Q 5.068794404296875 1.6182086967773437 5.0803659375 1.6078881401367187 L 5.0803659375 1.4649640678710936 Q 5.06848166015625 1.4562072319335937 5.053782685546874 1.4482322563476562 Q 5.0390837109375 1.4402572807617187 5.021726411132812 1.4340023979492187 Q 5.004369111328124 1.4277475151367187 4.984822602539062 1.4239945854492186 Q 4.965276093749999 1.4202416557617186 4.9433840039062495 1.4202416557617186 Q 4.911171357421875 1.4202416557617186 4.884588105468749 1.4283730034179687 Q 4.858004853515625 1.4365043510742186 4.8390838330078125 1.451985186035156 Q 4.8201628125 1.4674660209960937 4.809685883789062 1.490139971191406 Q 4.799208955078124 1.5128139213867187 4.799208955078124 1.5418991264648436 Q 4.799208955078124 1.6025714897460936 4.83517453125 1.635253252441406 Q 4.8711401074218745 1.6679350151367187 4.940256562499999 1.6679350151367187 M 5.521347685546875 1.6582399467773437 Q 5.506961455078124 1.6654330620117186 5.489447783203125 1.6730952934570311 Q 5.471934111328125 1.6807575249023436 5.4516057421875 1.6870124077148436 Q 5.431277373046875 1.6932672905273436 5.408447050781249 1.6973329643554687 Q 5.3856167285156245 1.7013986381835937 5.360597197265625 1.7013986381835937 Q 5.332450224609374 1.7013986381835937 5.30961990234375 1.6957692436523437 Q 5.286789580078125 1.6901398491210935 5.270839628906249 1.679037432128906 Q 5.254889677734375 1.6679350151367187 5.246132841796874 1.651515947753906 Q 5.237376005859375 1.6350968803710937 5.237376005859375 1.6135175346679687 Q 5.237376005859375 1.5800539116210937 5.258955351562499 1.5587873100585936 Q 5.280534697265624 1.5375207084960936 5.318533110351562 1.5248545708007812 Q 5.356531523437499 1.5121884331054687 5.408447050781249 1.5062462944335937 Q 5.460362578124999 1.5003041557617185 5.521347685546875 1.4974894584960936 L 5.521347685546875 1.4827904838867185 Q 5.521347685546875 1.4662150444335937 5.5122781054687495 1.4543307670898435 Q 5.503208525390624 1.4424464897460936 5.487884062499999 1.4349406303710937 Q 5.472559599609374 1.4274347709960935 5.452387602539062 1.423838213378906 Q 5.432215605468749 1.4202416557617186 5.409698027343749 1.4202416557617186 Q 5.383427519531249 1.4202416557617186 5.363881010742187 1.423525469238281 Q 5.344334501953124 1.4268092827148435 5.33088650390625 1.433220537597656 Q 5.317438505859374 1.4396317924804687 5.309463530273437 1.4488577446289062 Q 5.3014885546874995 1.4580836967773436 5.297735625 1.4699679741210936 L 5.258017119140624 1.4605856499023435 Q 5.268024931640625 1.4255583061523436 5.305710600585937 1.4061681694335937 Q 5.343396269531249 1.3867780327148436 5.408447050781249 1.3867780327148436 Q 5.4412851855468745 1.3867780327148436 5.469119414062499 1.3924074272460936 Q 5.4969536425781245 1.3980368217773436 5.517125639648437 1.4102338432617185 Q 5.537297636718749 1.4224308647460937 5.548712797851562 1.4419773735351562 Q 5.560127958984374 1.4615238823242187 5.560127958984374 1.4893581108398437 L 5.560127958984374 1.6576144584960937 L 5.634561064453124 1.6576144584960937 L 5.634561064453124 1.6929545463867186 L 5.521347685546875 1.6929545463867186 L 5.521347685546875 1.6582399467773437 M 5.521347685546875 1.5303275932617186 Q 5.45285671875 1.5328295463867185 5.405945097656249 1.5392408012695311 Q 5.3590334765625 1.5456520561523437 5.330104643554687 1.5558162407226561 Q 5.301175810546875 1.5659804252929685 5.288509672851562 1.579897539550781 Q 5.275843535156249 1.5938146538085936 5.275843535156249 1.6116410698242185 Q 5.275843535156249 1.6391625541992185 5.299768461914062 1.6535487846679686 Q 5.323693388671875 1.6679350151367187 5.369979521484375 1.6679350151367187 Q 5.389682402343749 1.6679350151367187 5.412043608398437 1.6635565971679687 Q 5.434404814453124 1.6591781791992186 5.455358671875 1.652454180175781 Q 5.476312529296875 1.6457301811523437 5.493826201171874 1.6372860893554686 Q 5.511339873046874 1.6288419975585937 5.521347685546875 1.6207106499023436 L 5.521347685546875 1.5303275932617186 M 5.664284267578124 1.3952221245117187 L 5.773744716796875 1.3952221245117187 L 5.773744716796875 1.4515160698242187 Q 5.78844369140625 1.4374425834960936 5.8065828515625 1.4254019340820312 Q 5.82472201171875 1.4133612846679686 5.845675869140624 1.4042917045898435 Q 5.8666297265625 1.3952221245117187 5.88977279296875 1.390061846191406 Q 5.9129158593749995 1.3849015678710936 5.93730990234375 1.3849015678710936 Q 5.966395107421874 1.3849015678710936 5.988130825195312 1.3922510551757812 Q 6.00986654296875 1.3996005424804685 6.0242527734374995 1.4130485405273436 Q 6.038639003906249 1.4264965385742185 6.045832119140624 1.445730303222656 Q 6.053025234374999 1.4649640678710936 6.053025234374999 1.4887326225585937 L 6.053025234374999 1.6576144584960937 L 6.12370541015625 1.6576144584960937 L 6.12370541015625 1.6929545463867186 L 5.94356478515625 1.6929545463867186 L 5.94356478515625 1.6576144584960937 L 6.013932216796875 1.6576144584960937 L 6.013932216796875 1.5003041557617185 Q 6.013932216796875 1.4765356010742186 6.007833706054687 1.4610547661132811 Q 6.0017351953124995 1.4455739311523437 5.99047640625 1.4365043510742186 Q 5.9792176171875 1.4274347709960935 5.963111293945312 1.423838213378906 Q 5.947004970703125 1.4202416557617186 5.926989345703125 1.4202416557617186 Q 5.9035335351562495 1.4202416557617186 5.8810159570312495 1.4264965385742185 Q 5.8584983789062495 1.4327514213867185 5.838639125976562 1.4421337456054686 Q 5.818779873046875 1.4515160698242187 5.802048061523437 1.462931230957031 Q 5.78531625 1.4743463920898436 5.773744716796875 1.4846669487304687 L 5.773744716796875 1.6576144584960937 L 5.844424892578124 1.6576144584960937 L 5.844424892578124 1.6929545463867186 L 5.664284267578124 1.6929545463867186 L 5.664284267578124 1.6576144584960937 L 5.73465169921875 1.6576144584960937 L 5.73465169921875 1.4302494682617186 L 5.664284267578124 1.4302494682617186 L 5.664284267578124 1.3952221245117187 M 6.4899413085937505 1.5103119682617185 L 6.4899413085937505 1.4956129936523437 Q 6.4899413085937505 1.4765356010742186 6.477900659179688 1.4624621147460937 Q 6.465860009765625 1.4483886284179686 6.447251733398438 1.4393190483398437 Q 6.42864345703125 1.4302494682617186 6.406282250976562 1.4258710502929686 Q 6.383921044921875 1.4214926323242185 6.363279931640625 1.4214926323242185 Q 6.328252587890625 1.4214926323242185 6.3004183593750005 1.4299367241210936 Q 6.272584130859375 1.4383808159179687 6.253350366210937 1.4541743950195312 Q 6.2341166015625005 1.4699679741210936 6.223952416992188 1.4926419243164062 Q 6.213788232421875 1.5153158745117186 6.213788232421875 1.5437755913085935 Q 6.213788232421875 1.5725480522460935 6.223796044921875 1.595222002441406 Q 6.233803857421875 1.6178959526367187 6.252724877929688 1.6338459038085935 Q 6.2716458984375 1.6497958549804685 6.299011010742188 1.6582399467773437 Q 6.326376123046875 1.6666840385742185 6.36109072265625 1.6666840385742185 Q 6.3904886718750005 1.6666840385742185 6.412537133789063 1.6612110161132811 Q 6.434585595703125 1.6557379936523435 6.44991005859375 1.647137529785156 Q 6.465234521484375 1.6385370659179685 6.4746168457031255 1.6279037651367185 Q 6.483999169921875 1.6172704643554687 6.488690332031251 1.6066371635742187 L 6.5290343261718755 1.6066371635742187 Q 6.511520654296875 1.6529232963867186 6.468361962890625 1.6768482231445312 Q 6.425203271484375 1.7007731499023435 6.3592142578125 1.7007731499023435 Q 6.3191830078125 1.7007731499023435 6.284937524414063 1.690608965332031 Q 6.2506920410156255 1.6804447807617187 6.2258288818359375 1.6605855278320312 Q 6.2009657226562505 1.6407262749023437 6.186892236328125 1.6114846977539061 Q 6.17281875 1.5822431206054686 6.17281875 1.5444010795898437 Q 6.17281875 1.5062462944335937 6.187517724609375 1.4768483452148435 Q 6.20221669921875 1.4474503959960936 6.227705346679688 1.4274347709960935 Q 6.253193994140625 1.4074191459960936 6.2874394775390625 1.3970985893554686 Q 6.3216849609375005 1.3867780327148436 6.360465234375 1.3867780327148436 Q 6.3832955566406255 1.3867780327148436 6.4029984375 1.3899054741210937 Q 6.422701318359375 1.3930329155273435 6.4391203857421875 1.3985059379882812 Q 6.4555394531250005 1.4039789604492185 6.468205590820313 1.4108593315429685 Q 6.480871728515625 1.4177397026367187 6.4899413085937505 1.4252455620117186 L 6.4899413085937505 1.3933456596679688 L 6.524030419921875 1.3933456596679688 L 6.524030419921875 1.5103119682617185 L 6.4899413085937505 1.5103119682617185 M 6.913409384765625 1.5290766166992187 Q 6.911845664062501 1.5078100151367186 6.90371431640625 1.4887326225585937 Q 6.89558296875 1.4696552299804686 6.8793202734375 1.4551126274414061 Q 6.863057578125 1.4405700249023436 6.838350791015626 1.4319695610351562 Q 6.8136440039062505 1.4233690971679687 6.778929404296875 1.4233690971679687 Q 6.746404013671875 1.4233690971679687 6.721384482421875 1.4319695610351562 Q 6.6963649511718755 1.4405700249023436 6.678851279296875 1.4551126274414061 Q 6.661337607421875 1.4696552299804686 6.6513297949218755 1.4887326225585937 Q 6.641321982421875 1.5078100151367186 6.63850728515625 1.5290766166992187 L 6.913409384765625 1.5290766166992187 M 6.778303916015625 1.7007731499023435 Q 6.73733443359375 1.7007731499023435 6.704027182617188 1.6899834770507811 Q 6.670719931640625 1.6791938041992187 6.64726412109375 1.659021807128906 Q 6.623808310546876 1.6388498100585935 6.6109858007812505 1.6100773491210936 Q 6.598163291015625 1.5813048881835936 6.598163291015625 1.5456520561523437 Q 6.598163291015625 1.5109374565429685 6.6116112890625 1.4820086235351562 Q 6.625059287109376 1.4530797905273436 6.6491405859375 1.4322823051757811 Q 6.673221884765625 1.4114848198242187 6.706372763671875 1.400069658691406 Q 6.739523642578125 1.3886544975585937 6.778929404296875 1.3886544975585937 Q 6.81989888671875 1.3886544975585937 6.852424277343751 1.4002260307617187 Q 6.88494966796875 1.4117975639648437 6.90746724609375 1.433533281738281 Q 6.92998482421875 1.4552689995117185 6.9418691015625 1.4862306694335936 Q 6.95375337890625 1.5171923393554687 6.95375337890625 1.5559726127929685 L 6.95375337890625 1.5628529838867187 L 6.63850728515625 1.5628529838867187 Q 6.6406964941406255 1.5866215385742186 6.650860678710938 1.6056989311523435 Q 6.66102486328125 1.6247763237304687 6.678851279296875 1.6382243217773436 Q 6.6966776953125 1.6516723198242187 6.721540854492188 1.6588654350585936 Q 6.746404013671875 1.6660585502929686 6.778303916015625 1.6660585502929686 Q 6.808952841796875 1.6660585502929686 6.831626791992187 1.6610546440429685 Q 6.8543007421875 1.6560507377929685 6.870094321289063 1.6476066459960936 Q 6.8858879003906255 1.6391625541992185 6.895739340820313 1.6285292534179687 Q 6.90559078125 1.6178959526367187 6.910907431640625 1.6066371635742187 L 6.95000044921875 1.6066371635742187 Q 6.931548544921875 1.6541742729492186 6.887295249023437 1.6774737114257812 Q 6.843041953125001 1.7007731499023435 6.778303916015625 1.7007731499023435 M 7.030075458984375 1.6588654350585936 Q 7.030075458984375 1.6513595756835937 7.032733784179688 1.6447919487304685 Q 7.0353921093750005 1.6382243217773436 7.040396015625 1.6333767875976561 Q 7.045399921875 1.6285292534179687 7.0519675488281255 1.625558184082031 Q 7.05853517578125 1.6225871147460935 7.0666665234375 1.6225871147460935 Q 7.07479787109375 1.6225871147460935 7.0816782421875 1.625558184082031 Q 7.088558613281251 1.6285292534179687 7.09356251953125 1.6338459038085935 Q 7.09856642578125 1.6391625541992185 7.101381123046876 1.6466684135742187 Q 7.1041958203125 1.6541742729492186 7.1041958203125 1.6629311088867187 Q 7.1041958203125 1.6770045952148436 7.100442890625001 1.690296221191406 Q 7.096689960937501 1.7035878471679686 7.090122333984375 1.7156284965820312 Q 7.083554707031251 1.7276691459960936 7.074641499023438 1.7383024467773436 Q 7.065728291015626 1.7489357475585936 7.055720478515625 1.7576925834960937 L 7.0391450390625 1.7417426323242187 Q 7.0507165722656255 1.7298583549804687 7.058222431640625 1.718130449707031 Q 7.065728291015626 1.7064025444335935 7.0691684765625 1.6929545463867186 Q 7.0591606640625 1.6929545463867186 7.051811176757813 1.6899834770507811 Q 7.044461689453126 1.6870124077148436 7.039614155273438 1.6821648735351562 Q 7.03476662109375 1.6773173393554686 7.032421040039063 1.6712188286132812 Q 7.030075458984375 1.6651203178710936 7.030075458984375 1.6588654350585936 M 7.425409072265626 1.2632440971679686 L 7.556761611328126 1.2632440971679686 L 7.809146132812501 1.6526105522460937 L 8.057464980468751 1.2632440971679686 L 8.1894430078125 1.2632440971679686 L 8.1894430078125 1.2982714409179685 L 8.099685439453125 1.2982714409179685 L 8.099685439453125 1.6576144584960937 L 8.1894430078125 1.6576144584960937 L 8.1894430078125 1.6929545463867186 L 7.97114759765625 1.6929545463867186 L 7.97114759765625 1.6576144584960937 L 8.060905166015626 1.6576144584960937 L 8.060905166015626 1.3273566459960937 L 7.825096083984375 1.6929545463867186 L 7.7903814843750006 1.6929545463867186 L 7.554259658203125 1.3257929252929685 L 7.554259658203125 1.6576144584960937 L 7.643704482421875 1.6576144584960937 L 7.643704482421875 1.6929545463867186 L 7.425409072265626 1.6929545463867186 L 7.425409072265626 1.6576144584960937 L 7.515166640625 1.6576144584960937 L 7.515166640625 1.2982714409179685 L 7.425409072265626 1.2982714409179685 L 7.425409072265626 1.2632440971679686 M 8.636679638671875 1.5444010795898437 Q 8.636679638671875 1.5853705620117187 8.6219806640625 1.6149248833007812 Q 8.607281689453124 1.6444792045898435 8.581636669921876 1.663712969238281 Q 8.555991650390625 1.6829467338867186 8.521120678710938 1.692172686035156 Q 8.48624970703125 1.7013986381835937 8.445905712890625 1.7013986381835937 Q 8.405248974609375 1.7013986381835937 8.370221630859374 1.692172686035156 Q 8.335194287109376 1.6829467338867186 8.309392895507813 1.663712969238281 Q 8.28359150390625 1.6444792045898435 8.268892529296876 1.6149248833007812 Q 8.2541935546875 1.5853705620117187 8.2541935546875 1.5444010795898437 Q 8.2541935546875 1.5037443413085936 8.269048901367187 1.473877275878906 Q 8.283904248046875 1.4440102104492185 8.30986201171875 1.4247764458007812 Q 8.335819775390625 1.4055426811523435 8.370847119140626 1.3961603569335936 Q 8.405874462890624 1.3867780327148436 8.445905712890625 1.3867780327148436 Q 8.48624970703125 1.3867780327148436 8.521120678710938 1.396003984863281 Q 8.555991650390625 1.4052299370117187 8.581636669921876 1.424463701660156 Q 8.607281689453124 1.4436974663085937 8.6219806640625 1.473564531738281 Q 8.636679638671875 1.5034315971679686 8.636679638671875 1.5444010795898437 M 8.598212109375 1.5444010795898437 Q 8.598212109375 1.4840414604492187 8.559900952148437 1.4521415581054686 Q 8.521589794921875 1.4202416557617186 8.445905712890625 1.4202416557617186 Q 8.36990888671875 1.4202416557617186 8.331284985351562 1.4521415581054686 Q 8.292661083984376 1.4840414604492187 8.292661083984376 1.5444010795898437 Q 8.292661083984376 1.6047606987304686 8.331284985351562 1.6363478569335936 Q 8.36990888671875 1.6679350151367187 8.445905712890625 1.6679350151367187 Q 8.521589794921875 1.6679350151367187 8.559900952148437 1.636191484863281 Q 8.598212109375 1.6044479545898436 8.598212109375 1.5444010795898437 M 9.135519052734375 1.6929545463867186 L 9.026058603515626 1.6929545463867186 L 9.026058603515626 1.6494831108398436 Q 9.01135962890625 1.6610546440429685 8.995409677734376 1.6705933403320312 Q 8.979459726562501 1.6801320366210937 8.961164194335938 1.6870124077148436 Q 8.942868662109376 1.6938927788085936 8.922071176757813 1.6976457084960936 Q 8.901273691406251 1.7013986381835937 8.8768796484375 1.7013986381835937 Q 8.844354257812501 1.7013986381835937 8.813548959960938 1.691859941894531 Q 8.782743662109375 1.6823212456054686 8.758975107421875 1.6626183647460937 Q 8.735206552734375 1.6429154838867186 8.720820322265626 1.6128920463867187 Q 8.706434091796876 1.5828686088867185 8.706434091796876 1.5418991264648436 Q 8.706434091796876 1.5024933647460936 8.720663950195313 1.4734081596679687 Q 8.73489380859375 1.4443229545898437 8.759600595703125 1.425089189941406 Q 8.7843073828125 1.4058554252929687 8.81745826171875 1.3963167290039062 Q 8.850609140625 1.3867780327148436 8.888451181640626 1.3867780327148436 Q 8.90752857421875 1.3867780327148436 8.925980478515626 1.389749102050781 Q 8.9444323828125 1.3927201713867186 8.9619460546875 1.3980368217773436 Q 8.979459726562501 1.4033534721679686 8.995722421875001 1.4103902153320311 Q 9.0119851171875 1.4174269584960937 9.026058603515626 1.4252455620117186 L 9.026058603515626 1.2982714409179685 L 8.95506568359375 1.2982714409179685 L 8.95506568359375 1.2632440971679686 L 9.06515162109375 1.2632440971679686 L 9.06515162109375 1.6576144584960937 L 9.135519052734375 1.6576144584960937 L 9.135519052734375 1.6929545463867186 M 8.885949228515626 1.6679350151367187 Q 8.909092294921875 1.6679350151367187 8.929577036132812 1.662461992675781 Q 8.95006177734375 1.6569889702148437 8.967731821289062 1.6482321342773436 Q 8.985401865234376 1.6394752983398435 8.999944467773439 1.6288419975585937 Q 9.0144870703125 1.6182086967773437 9.026058603515626 1.6078881401367187 L 9.026058603515626 1.4649640678710936 Q 9.014174326171876 1.4562072319335937 8.9994753515625 1.4482322563476562 Q 8.984776376953125 1.4402572807617187 8.967419077148438 1.4340023979492187 Q 8.95006177734375 1.4277475151367187 8.930515268554688 1.4239945854492186 Q 8.910968759765625 1.4202416557617186 8.889076669921876 1.4202416557617186 Q 8.8568640234375 1.4202416557617186 8.830280771484375 1.4283730034179687 Q 8.80369751953125 1.4365043510742186 8.784776499023438 1.451985186035156 Q 8.765855478515626 1.4674660209960937 8.755378549804687 1.490139971191406 Q 8.744901621093751 1.5128139213867187 8.744901621093751 1.5418991264648436 Q 8.744901621093751 1.6025714897460936 8.780867197265625 1.635253252441406 Q 8.8168327734375 1.6679350151367187 8.885949228515626 1.6679350151367187 M 9.498314765625 1.5290766166992187 Q 9.496751044921876 1.5078100151367186 9.488619697265625 1.4887326225585937 Q 9.480488349609375 1.4696552299804686 9.464225654296875 1.4551126274414061 Q 9.447962958984375 1.4405700249023436 9.423256171875 1.4319695610351562 Q 9.398549384765625 1.4233690971679687 9.36383478515625 1.4233690971679687 Q 9.33130939453125 1.4233690971679687 9.30628986328125 1.4319695610351562 Q 9.28127033203125 1.4405700249023436 9.26375666015625 1.4551126274414061 Q 9.246242988281251 1.4696552299804686 9.23623517578125 1.4887326225585937 Q 9.22622736328125 1.5078100151367186 9.223412666015625 1.5290766166992187 L 9.498314765625 1.5290766166992187 M 9.363209296875 1.7007731499023435 Q 9.322239814453125 1.7007731499023435 9.288932563476562 1.6899834770507811 Q 9.255625312500001 1.6791938041992187 9.232169501953125 1.659021807128906 Q 9.20871369140625 1.6388498100585935 9.195891181640626 1.6100773491210936 Q 9.183068671875 1.5813048881835936 9.183068671875 1.5456520561523437 Q 9.183068671875 1.5109374565429685 9.196516669921875 1.4820086235351562 Q 9.20996466796875 1.4530797905273436 9.234045966796876 1.4322823051757811 Q 9.258127265625001 1.4114848198242187 9.291278144531251 1.400069658691406 Q 9.324429023437501 1.3886544975585937 9.36383478515625 1.3886544975585937 Q 9.404804267578125 1.3886544975585937 9.437329658203126 1.4002260307617187 Q 9.469855048828125 1.4117975639648437 9.492372626953125 1.433533281738281 Q 9.514890205078125 1.4552689995117185 9.526774482421875 1.4862306694335936 Q 9.538658759765624 1.5171923393554687 9.538658759765624 1.5559726127929685 L 9.538658759765624 1.5628529838867187 L 9.223412666015625 1.5628529838867187 Q 9.225601875 1.5866215385742186 9.235766059570313 1.6056989311523435 Q 9.245930244140625 1.6247763237304687 9.26375666015625 1.6382243217773436 Q 9.281583076171875 1.6516723198242187 9.306446235351563 1.6588654350585936 Q 9.33130939453125 1.6660585502929686 9.363209296875 1.6660585502929686 Q 9.39385822265625 1.6660585502929686 9.416532172851563 1.6610546440429685 Q 9.439206123046876 1.6560507377929685 9.454999702148438 1.6476066459960936 Q 9.47079328125 1.6391625541992185 9.480644721679688 1.6285292534179687 Q 9.490496162109375 1.6178959526367187 9.4958128125 1.6066371635742187 L 9.534905830078126 1.6066371635742187 Q 9.516453925781251 1.6541742729492186 9.472200629882813 1.6774737114257812 Q 9.427947333984376 1.7007731499023435 9.363209296875 1.7007731499023435 M 9.591212285156251 1.3952221245117187 L 9.700672734375 1.3952221245117187 L 9.700672734375 1.4577709526367186 Q 9.713495244140626 1.4427592338867186 9.728194218750001 1.429780352050781 Q 9.742893193359375 1.4168014702148437 9.759937749023438 1.407262773925781 Q 9.7769823046875 1.3977240776367186 9.796528813476563 1.3922510551757812 Q 9.816075322265625 1.3867780327148436 9.838592900390626 1.3867780327148436 Q 9.849851689453125 1.3867780327148436 9.8595467578125 1.388498125488281 Q 9.869241826171876 1.3902182182617187 9.876747685546876 1.3924074272460936 Q 9.884253544921876 1.3945966362304687 9.889257451171876 1.3967858452148436 Q 9.894261357421875 1.3989750541992185 9.896137822265626 1.3996005424804685 L 9.8820643359375 1.4355661186523436 Q 9.874245732421876 1.4315004448242186 9.861892338867188 1.4271220268554687 Q 9.849538945312501 1.4227436088867187 9.830774296875001 1.4227436088867187 Q 9.807005742187501 1.4227436088867187 9.787146489257813 1.4300930961914062 Q 9.767287236328126 1.4374425834960936 9.751180913085937 1.4483886284179686 Q 9.73507458984375 1.4593346733398436 9.72256482421875 1.472626299316406 Q 9.71005505859375 1.4859179252929686 9.700672734375 1.4974894584960936 L 9.700672734375 1.6576144584960937 L 9.77760779296875 1.6576144584960937 L 9.77760779296875 1.6929545463867186 L 9.591212285156251 1.6929545463867186 L 9.591212285156251 1.6576144584960937 L 9.661579716796876 1.6576144584960937 L 9.661579716796876 1.4302494682617186 L 9.591212285156251 1.4302494682617186 L 9.591212285156251 1.3952221245117187 M 9.927112001953127 1.3952221245117187 L 10.036572451171876 1.3952221245117187 L 10.036572451171876 1.4515160698242187 Q 10.051271425781252 1.4374425834960936 10.0694105859375 1.4254019340820312 Q 10.087549746093751 1.4133612846679686 10.108503603515626 1.4042917045898435 Q 10.129457460937502 1.3952221245117187 10.15260052734375 1.390061846191406 Q 10.175743593750001 1.3849015678710936 10.20013763671875 1.3849015678710936 Q 10.229222841796876 1.3849015678710936 10.250958559570314 1.3922510551757812 Q 10.272694277343751 1.3996005424804685 10.287080507812501 1.4130485405273436 Q 10.30146673828125 1.4264965385742185 10.308659853515627 1.445730303222656 Q 10.31585296875 1.4649640678710936 10.31585296875 1.4887326225585937 L 10.31585296875 1.6576144584960937 L 10.386533144531251 1.6576144584960937 L 10.386533144531251 1.6929545463867186 L 10.206392519531251 1.6929545463867186 L 10.206392519531251 1.6576144584960937 L 10.276759951171876 1.6576144584960937 L 10.276759951171876 1.5003041557617185 Q 10.276759951171876 1.4765356010742186 10.270661440429688 1.4610547661132811 Q 10.264562929687502 1.4455739311523437 10.253304140625001 1.4365043510742186 Q 10.242045351562501 1.4274347709960935 10.225939028320314 1.423838213378906 Q 10.209832705078126 1.4202416557617186 10.189817080078127 1.4202416557617186 Q 10.16636126953125 1.4202416557617186 10.143843691406252 1.4264965385742185 Q 10.12132611328125 1.4327514213867185 10.101466860351564 1.4421337456054686 Q 10.081607607421876 1.4515160698242187 10.06487579589844 1.462931230957031 Q 10.048143984375 1.4743463920898436 10.036572451171876 1.4846669487304687 L 10.036572451171876 1.6576144584960937 L 10.107252626953127 1.6576144584960937 L 10.107252626953127 1.6929545463867186 L 9.927112001953127 1.6929545463867186 L 9.927112001953127 1.6576144584960937 L 9.997479433593751 1.6576144584960937 L 9.997479433593751 1.4302494682617186 L 9.927112001953127 1.4302494682617186 L 9.927112001953127 1.3952221245117187 M 10.679912167968752 1.2632440971679686 L 10.898207578125001 1.2632440971679686 L 10.898207578125001 1.2982714409179685 L 10.808762753906251 1.2982714409179685 L 10.808762753906251 1.6563634819335935 L 11.119943173828126 1.6563634819335935 L 11.119943173828126 1.5578490776367186 L 11.15528326171875 1.5578490776367186 L 11.15528326171875 1.6929545463867186 L 10.679912167968752 1.6929545463867186 L 10.679912167968752 1.6576144584960937 L 10.769669736328126 1.6576144584960937 L 10.769669736328126 1.2982714409179685 L 10.679912167968752 1.2982714409179685 L 10.679912167968752 1.2632440971679686 M 11.203771113281253 1.3952221245117187 L 11.313231562500002 1.3952221245117187 L 11.313231562500002 1.6576144584960937 L 11.383911738281252 1.6576144584960937 L 11.383911738281252 1.6929545463867186 L 11.203771113281253 1.6929545463867186 L 11.203771113281253 1.6576144584960937 L 11.274138544921877 1.6576144584960937 L 11.274138544921877 1.4302494682617186 L 11.203771113281253 1.4302494682617186 L 11.203771113281253 1.3952221245117187 M 11.254435664062502 1.3117194389648437 Q 11.254435664062502 1.3045263237304687 11.257093989257815 1.2981150688476562 Q 11.259752314453127 1.2917038139648436 11.264443476562501 1.2870126518554685 Q 11.269134638671877 1.2823214897460935 11.275389521484376 1.2795067924804686 Q 11.281644404296877 1.2766920952148437 11.288837519531253 1.2766920952148437 Q 11.296030634765627 1.2766920952148437 11.30244188964844 1.2795067924804686 Q 11.308853144531252 1.2823214897460935 11.313700678710939 1.2870126518554685 Q 11.318548212890628 1.2917038139648436 11.321362910156251 1.2981150688476562 Q 11.324177607421877 1.3045263237304687 11.324177607421877 1.3117194389648437 Q 11.324177607421877 1.3189125541992186 11.321362910156251 1.3253238090820312 Q 11.318548212890628 1.3317350639648438 11.313700678710939 1.3364262260742186 Q 11.308853144531252 1.3411173881835936 11.30244188964844 1.3437757133789061 Q 11.296030634765627 1.3464340385742186 11.288837519531253 1.3464340385742186 Q 11.281644404296877 1.3464340385742186 11.275389521484376 1.3437757133789061 Q 11.269134638671877 1.3411173881835936 11.264443476562501 1.3364262260742186 Q 11.259752314453127 1.3317350639648438 11.257093989257815 1.3253238090820312 Q 11.254435664062502 1.3189125541992186 11.254435664062502 1.3117194389648437 M 11.402376152343752 1.3952221245117187 L 11.556871757812502 1.3952221245117187 L 11.556871757812502 1.4302494682617186 L 11.504330742187502 1.4302494682617186 L 11.614416679687501 1.6551125053710936 L 11.725128105468752 1.4302494682617186 L 11.672587089843752 1.4302494682617186 L 11.672587089843752 1.3952221245117187 L 11.827082695312502 1.3952221245117187 L 11.827082695312502 1.4302494682617186 L 11.767974052734377 1.4302494682617186 L 11.634119560546877 1.6929545463867186 L 11.593775566406253 1.6929545463867186 L 11.461172050781252 1.4302494682617186 L 11.402376152343752 1.4302494682617186 L 11.402376152343752 1.3952221245117187 M 11.850238271484377 1.3952221245117187 L 11.959698720703127 1.3952221245117187 L 11.959698720703127 1.6576144584960937 L 12.030378896484377 1.6576144584960937 L 12.030378896484377 1.6929545463867186 L 11.850238271484377 1.6929545463867186 L 11.850238271484377 1.6576144584960937 L 11.920605703125002 1.6576144584960937 L 11.920605703125002 1.4302494682617186 L 11.850238271484377 1.4302494682617186 L 11.850238271484377 1.3952221245117187 M 11.900902822265627 1.3117194389648437 Q 11.900902822265627 1.3045263237304687 11.90356114746094 1.2981150688476562 Q 11.906219472656252 1.2917038139648436 11.910910634765626 1.2870126518554685 Q 11.915601796875002 1.2823214897460935 11.921856679687501 1.2795067924804686 Q 11.928111562500002 1.2766920952148437 11.935304677734377 1.2766920952148437 Q 11.942497792968751 1.2766920952148437 11.948909047851565 1.2795067924804686 Q 11.955320302734377 1.2823214897460935 11.960167836914064 1.2870126518554685 Q 11.965015371093752 1.2917038139648436 11.967830068359376 1.2981150688476562 Q 11.970644765625002 1.3045263237304687 11.970644765625002 1.3117194389648437 Q 11.970644765625002 1.3189125541992186 11.967830068359376 1.3253238090820312 Q 11.965015371093752 1.3317350639648438 11.960167836914064 1.3364262260742186 Q 11.955320302734377 1.3411173881835936 11.948909047851565 1.3437757133789061 Q 11.942497792968751 1.3464340385742186 11.935304677734377 1.3464340385742186 Q 11.928111562500002 1.3464340385742186 11.921856679687501 1.3437757133789061 Q 11.915601796875002 1.3411173881835936 11.910910634765626 1.3364262260742186 Q 11.906219472656252 1.3317350639648438 11.90356114746094 1.3253238090820312 Q 11.900902822265627 1.3189125541992186 11.900902822265627 1.3117194389648437 M 12.063542285156252 1.3952221245117187 L 12.173002734375002 1.3952221245117187 L 12.173002734375002 1.4515160698242187 Q 12.187701708984378 1.4374425834960936 12.205840869140626 1.4254019340820312 Q 12.223980029296877 1.4133612846679686 12.244933886718751 1.4042917045898435 Q 12.265887744140628 1.3952221245117187 12.289030810546876 1.390061846191406 Q 12.312173876953127 1.3849015678710936 12.336567919921876 1.3849015678710936 Q 12.365653125000001 1.3849015678710936 12.38738884277344 1.3922510551757812 Q 12.409124560546877 1.3996005424804685 12.423510791015627 1.4130485405273436 Q 12.437897021484376 1.4264965385742185 12.445090136718752 1.445730303222656 Q 12.452283251953126 1.4649640678710936 12.452283251953126 1.4887326225585937 L 12.452283251953126 1.6576144584960937 L 12.522963427734377 1.6576144584960937 L 12.522963427734377 1.6929545463867186 L 12.342822802734377 1.6929545463867186 L 12.342822802734377 1.6576144584960937 L 12.413190234375001 1.6576144584960937 L 12.413190234375001 1.5003041557617185 Q 12.413190234375001 1.4765356010742186 12.407091723632814 1.4610547661132811 Q 12.400993212890628 1.4455739311523437 12.389734423828127 1.4365043510742186 Q 12.378475634765627 1.4274347709960935 12.36236931152344 1.423838213378906 Q 12.346262988281252 1.4202416557617186 12.326247363281253 1.4202416557617186 Q 12.302791552734377 1.4202416557617186 12.280273974609377 1.4264965385742185 Q 12.257756396484377 1.4327514213867185 12.23789714355469 1.4421337456054686 Q 12.218037890625002 1.4515160698242187 12.201306079101565 1.462931230957031 Q 12.184574267578126 1.4743463920898436 12.173002734375002 1.4846669487304687 L 12.173002734375002 1.6576144584960937 L 12.243682910156252 1.6576144584960937 L 12.243682910156252 1.6929545463867186 L 12.063542285156252 1.6929545463867186 L 12.063542285156252 1.6576144584960937 L 12.133909716796877 1.6576144584960937 L 12.133909716796877 1.4302494682617186 L 12.063542285156252 1.4302494682617186 L 12.063542285156252 1.3952221245117187 M 12.741896835937501 1.8224306206054686 Q 12.697174423828127 1.8224306206054686 12.659488754882814 1.8136737846679687 Q 12.6218030859375 1.8049169487304686 12.593343369140626 1.7908434624023437 L 12.611169785156251 1.7564416069335935 Q 12.6167991796875 1.7598817924804686 12.626806992187502 1.765042070800781 Q 12.636814804687502 1.7702023491210936 12.65245201171875 1.775362627441406 Q 12.668089218750001 1.7805229057617187 12.690137680664064 1.7841194633789061 Q 12.712186142578126 1.7877160209960936 12.741896835937501 1.7877160209960936 Q 12.773796738281252 1.7877160209960936 12.797252548828126 1.7830248588867186 Q 12.820708359375 1.7783336967773435 12.83744017089844 1.770045977050781 Q 12.854171982421876 1.7617582573242185 12.864648911132814 1.7506558403320311 Q 12.87512583984375 1.7395534233398435 12.881224350585939 1.7267309135742186 Q 12.887322861328126 1.7139084038085937 12.8895120703125 1.6998349174804686 Q 12.891701279296877 1.6857614311523437 12.891701279296877 1.6716879448242186 L 12.891701279296877 1.6494831108398436 Q 12.877002304687501 1.6610546440429685 12.861052353515626 1.6705933403320312 Q 12.845102402343752 1.6801320366210937 12.826806870117188 1.6870124077148436 Q 12.808511337890627 1.6938927788085936 12.787713852539063 1.6976457084960936 Q 12.766916367187502 1.7013986381835937 12.74252232421875 1.7013986381835937 Q 12.709996933593752 1.7013986381835937 12.679191635742189 1.691859941894531 Q 12.648386337890626 1.6823212456054686 12.624617783203126 1.6626183647460937 Q 12.600849228515626 1.6429154838867186 12.586462998046876 1.6128920463867187 Q 12.572076767578126 1.5828686088867185 12.572076767578126 1.5418991264648436 Q 12.572076767578126 1.5024933647460936 12.586306625976563 1.4734081596679687 Q 12.600536484375 1.4443229545898437 12.625243271484376 1.425089189941406 Q 12.64995005859375 1.4058554252929687 12.6831009375 1.3963167290039062 Q 12.71625181640625 1.3867780327148436 12.754093857421877 1.3867780327148436 Q 12.77317125 1.3867780327148436 12.791623154296877 1.389749102050781 Q 12.810075058593752 1.3927201713867186 12.82758873046875 1.3980368217773436 Q 12.845102402343752 1.4033534721679686 12.861365097656252 1.4103902153320311 Q 12.87762779296875 1.4174269584960937 12.891701279296877 1.4252455620117186 L 12.891701279296877 1.3952221245117187 L 13.001161728515626 1.3952221245117187 L 13.001161728515626 1.4302494682617186 L 12.930794296875002 1.4302494682617186 L 12.930794296875002 1.6704369682617186 Q 12.930794296875002 1.7042133354492186 12.919848251953127 1.7320475639648436 Q 12.908902207031252 1.7598817924804686 12.885915512695314 1.780053789550781 Q 12.862928818359377 1.8002257866210936 12.827119614257814 1.8113282036132812 Q 12.791310410156251 1.8224306206054686 12.741896835937501 1.8224306206054686 M 12.751591904296877 1.6679350151367187 Q 12.774734970703125 1.6679350151367187 12.795219711914063 1.662461992675781 Q 12.815704453125 1.6569889702148437 12.833374497070313 1.6482321342773436 Q 12.851044541015627 1.6394752983398435 12.86558714355469 1.6288419975585937 Q 12.88012974609375 1.6182086967773437 12.891701279296877 1.6078881401367187 L 12.891701279296877 1.4649640678710936 Q 12.879817001953127 1.4562072319335937 12.865118027343751 1.4482322563476562 Q 12.850419052734376 1.4402572807617187 12.833061752929689 1.4340023979492187 Q 12.815704453125 1.4277475151367187 12.796157944335938 1.4239945854492186 Q 12.776611435546876 1.4202416557617186 12.754719345703126 1.4202416557617186 Q 12.722506699218751 1.4202416557617186 12.695923447265626 1.4283730034179687 Q 12.6693401953125 1.4365043510742186 12.65041917480469 1.451985186035156 Q 12.631498154296876 1.4674660209960937 12.621021225585938 1.490139971191406 Q 12.610544296875002 1.5128139213867187 12.610544296875002 1.5418991264648436 Q 12.610544296875002 1.6025714897460936 12.646509873046876 1.635253252441406 Q 12.682475449218751 1.6679350151367187 12.751591904296877 1.6679350151367187 M 13.056529951171877 1.6598036674804686 Q 13.056529951171877 1.6519850639648437 13.0593446484375 1.6452610649414061 Q 13.062159345703126 1.6385370659179685 13.067006879882813 1.6335331596679685 Q 13.071854414062502 1.6285292534179687 13.078578413085939 1.625558184082031 Q 13.085302412109376 1.6225871147460935 13.093121015625002 1.6225871147460935 Q 13.100626875000001 1.6225871147460935 13.107350874023439 1.625558184082031 Q 13.114074873046876 1.6285292534179687 13.119078779296876 1.6335331596679685 Q 13.124082685546876 1.6385370659179685 13.127053754882814 1.6452610649414061 Q 13.13002482421875 1.6519850639648437 13.13002482421875 1.6598036674804686 Q 13.13002482421875 1.6673095268554685 13.127053754882814 1.674033525878906 Q 13.124082685546876 1.6807575249023436 13.119078779296876 1.685605059082031 Q 13.114074873046876 1.6904525932617187 13.107350874023439 1.6932672905273436 Q 13.100626875000001 1.6960819877929687 13.093121015625002 1.6960819877929687 Q 13.085302412109376 1.6960819877929687 13.078578413085939 1.6932672905273436 Q 13.071854414062502 1.6904525932617187 13.067006879882813 1.685605059082031 Q 13.062159345703126 1.6807575249023436 13.0593446484375 1.674033525878906 Q 13.056529951171877 1.6673095268554685 13.056529951171877 1.6598036674804686" fill="#574848" fill-rule="nonzero"></path></g></g><defs><clipPath id="SvgjsClipPath47795"><path d=" M -5.312410501812604 -0.9671187621244796 h 5.017410501812604 v 3.6271920706356777 h -5.017410501812604 Z"></path></clipPath><clipPath id="a722377f9-3d93-417c-97d8-ae02392e26ffea59c20e-2070-481f-94f6-215186dbfa56"><path d=" M -5.312425762583105 2.660073308511198 L -0.2950060095754736 2.660073308511198 L -0.2950060095754736 -0.9671187621244796 L -5.312425762583105 -0.9671187621244796 Z"></path></clipPath></defs></svg>