<svg xmlns="http://www.w3.org/2000/svg" fill="#7b7c7f" fill-rule="evenodd" viewBox="0 0 496.62 275.58"><path d="M96.31 275.57q-28.73 0-50.44-17.41-21.71-17.41-33.8-49.21Q0 177.15-.01 135.51q0-39.73 12.08-70.59 12.08-30.86 34-47.89 21.87-17 50.28-17 28.74 0 50.61 17.22t33.79 47.88q11.93 30.68 11.92 70.41 0 41.64-11.92 73.44-11.92 31.8-33.79 49.21-21.9 17.39-50.65 17.38zm0-43.53q24.81 0 39.67-23.85 14.86-23.85 14.86-72.68 0-45.42-15-69.08-15-23.66-39.53-23.65-24.47 0-39.5 23.65-15.03 23.65-15 69.08 0 48.47 14.86 72.49 14.86 24.02 39.64 24.04zm186.12-80.63q-26.12 0-41-21.2-14.88-21.2-14.83-55.64 0-33.69 15.35-54.13Q257.3 0 282.43 0q25.14 0 40.49 20.44 15.35 20.44 15.39 54.13 0 34.06-15 55.45t-40.82 21.39zm0-32.93q10.78 0 16.65-11.55 5.87-11.55 5.88-32.36 0-20.45-6-31t-16.49-10.6q-10.44 0-16.49 10.6-6.05 10.6-6 31 0 43.9 22.53 43.91zM413.04 5.29h32.32l-134.52 265h-32.65l134.85-265zm27.75 270.28q-26.12 0-41-21.19-14.88-21.19-14.83-55.6 0-33.69 15.34-54.13 15.34-20.44 40.49-20.44 25.14 0 40.49 20.44 15.35 20.44 15.34 54.13 0 34.07-15 55.46t-40.81 21.38zm0-32.93q10.77 0 16.65-11.54 5.88-11.54 5.87-32.32 0-20.44-6-31-6-10.56-16.49-10.6-10.46 0-16.49 10.6-6.03 10.6-6 31-.02 43.86 22.46 43.86z"/></svg>