<svg xmlns="http://www.w3.org/2000/svg" id="Layer_1" data-name="Layer 1" viewBox="0 0 538.21 477.73"><defs><style>.cls-1,.cls-2{fill:#7b7c7f;fill-rule:evenodd}.cls-2{fill:#fff}</style></defs><path d="M415.6 0a122.61 122.61 0 0 1 95.13 200 123.6 123.6 0 0 1-14.81 15.28c-40.07 43.7-73.33 100.77-80.29 171.26-7-70.49-40.22-127.56-80.29-171.26a124.24 124.24 0 0 1-14.8-15.28A122.61 122.61 0 0 1 415.67 0Zm0 76a46.61 46.61 0 1 0 46.61 46.61A46.61 46.61 0 0 0 415.6 76ZM122.61 0a122.61 122.61 0 0 1 95.13 200 123.6 123.6 0 0 1-14.81 15.28c-40.07 43.7-73.33 100.77-80.29 171.26-6.95-70.49-40.22-127.56-80.29-171.26A124.24 124.24 0 0 1 27.55 200 122.61 122.61 0 0 1 122.68 0Zm0 76a46.61 46.61 0 1 0 46.61 46.61A46.61 46.61 0 0 0 122.61 76Z" class="cls-1"/><path d="M269.89 53.27A122.62 122.62 0 0 1 370.41 246.1c-51.68 73.75-90.28 89.99-100.52 193.75-10.05-101.78-47.93-120.24-99.76-192.64a122.62 122.62 0 0 1 99.76-193.9Zm0 76a46.61 46.61 0 1 0 46.61 46.58 46.61 46.61 0 0 0-46.61-46.58Z" class="cls-1"/><path d="M269.89 49.54a126 126 0 0 1 89.34 37 126.19 126.19 0 0 1 14.24 161.68c-13.3 19-25.59 34-36.77 47.72-32.42 39.68-55.56 68-63.09 144.24l-3.7 37.55-3.71-37.55c-7.53-76.37-31-105.22-64.4-146.17-10.63-13.05-22.26-27.33-34.67-44.67a126.32 126.32 0 0 1 13.45-162.8 126 126 0 0 1 89.33-37Zm84.06 42.31A118.87 118.87 0 0 0 173.17 245c12.31 17.2 23.85 31.36 34.38 44.3 29.89 36.66 52 63.88 62.34 122.56 10.21-58.44 32-85.1 61-120.64 11.2-13.69 23.49-28.74 36.45-47.25a118.93 118.93 0 0 0-13.38-152.12Zm-84.06 33.72a50.23 50.23 0 0 0-35.58 14.75 50.34 50.34 0 0 0 0 71.18 50.332 50.332 0 1 0 71.18-71.18 50.16 50.16 0 0 0-35.59-14.75Zm30.31 20a42.89 42.89 0 0 0-60.63 0 42.9 42.9 0 0 0 0 60.63 42.882 42.882 0 0 0 60.65-60.64Z" class="cls-2"/></svg>