<svg xmlns="http://www.w3.org/2000/svg" version="1.1" xmlns:xlink="http://www.w3.org/1999/xlink" xmlns:svgjs="http://svgjs.dev/svgjs" viewBox="0 0 19.739149937741317 6.977906106154443"><g transform="matrix(0.7581114589041184,0,0,0.7581114589041184,5.988939776675201,2.7469327643813255)"><rect width="21.965571274732632" height="21.965571274732632" x="-5.863966832272566" y="-10.004010973059675" fill="#eed9cb"></rect><g transform="matrix(1,0,0,1,0,0)" clip-path="url(#SvgjsClipPath68865)"><g clip-path="url(#a7278346f-2aa5-44a6-9331-6c09469e70da26e6556a-d046-46ad-9bfc-f4796360b034)"><path d=" M -0.9745069675272084 1.284928090759291 L -1.178474652407687 1.2157885915339444 L -1.095778388628351 1.0045495511199625 C -0.8697270914357897 0.4254597430880036 -0.6431236148286326 -0.1534143665698724 -0.41596826791223673 -0.7320719882221625 C -0.3987142039250351 -0.7641152499191617 -0.3951401478153471 -0.8028136505550953 -0.40672501934330185 -0.8342406956575255 C -0.41646186080685155 -0.8617759060299582 -0.4383950324094079 -0.8832540325785193 -0.46612829675260103 -0.8924115399255536 L -1.9392556305147535 -1.3917934487688766 C -1.9665762794639878 -1.4011977907525466 -1.9966916640226726 -1.3976601401567974 -2.0210891910951996 -1.382180470266957 C -2.0508157121896105 -1.3621958009892927 -2.0708339933672066 -1.3306938183325845 -2.0763021958241747 -1.2952939338072968 L -2.6560387454784173 0.7149277629210946 L -2.8596367004165146 0.6457882636957484 C -2.9175170988488603 0.6262905803874066 -2.9802691201786864 0.6572533863464605 -3.00001083520737 0.715051006235222 L -3.095277917027678 0.9960457624451866 L -3.6326187666221714 2.5810780254348162 C -3.6490824028202336 2.6298440728911143 -3.6229424175452634 2.682730667571908 -3.5742014357258896 2.6992683636827794 L -3.3614834755423812 2.7713657024471785 C -3.3144045295457993 2.787387333283711 -3.262149364355876 2.763971103599547 -3.2407050276977474 2.7135645881215322 L -2.968953520047321 1.8925176294062758 L -1.6458132995779442 2.341123292829202 L -1.9309983284682326 3.162909711429221 C -1.9430452293057314 3.2114344511642963 -1.916034038419983 3.261124344892733 -1.8687604548340082 3.2774027502533687 L -1.6560424946504997 3.3496233323318942 C -1.607281358650443 3.366013837219024 -1.5544449686426622 3.339898666349693 -1.5378521564025363 3.291206001435612 L -1.000511306808043 1.7061737384459832 L -0.9052442249877344 1.425302225550145 C -0.8857465416793939 1.3674218271177998 -0.9167093476384474 1.3046698057879746 -0.9745069675272084 1.284928090759291 M -0.5187531918849064 -0.7870385063468166 L -0.52294346456523 -0.7784114743579142 C -0.7505857654281947 -0.19843687709581914 -0.9776822128115406 0.3817518216006588 -1.20423250502883 0.9621538509798842 L -1.2887774185515108 1.1784458673534095 L -1.4240985774631518 1.1324761111839723 L -0.6964700508562958 -0.8475509735832605 L -0.5186299485707786 -0.7871617496609434 L -0.518753191884906 -0.7870385063468163 M -2.2999888109650017 0.835582967451602 L -1.673419801942432 -1.1787057586429868 L -1.538838102915554 -1.133105732415931 L -2.1652838686239972 0.8811829936786579 Z M -2.0551043457943003 0.9186489611733197 L -1.4285353367717302 -1.0956397649212692 L -1.2953093142002512 -1.0505327119507224 L -1.9724080820149645 0.9466251934801884 Z M -1.1850065480564278 -1.0131899877701875 L -1.0516572821708214 -0.9679596914855131 L -1.7794090520918044 1.0120673932817197 L -1.8621053158711407 0.9839679176607237 Z M -0.941477759341125 -0.9306169673049782 L -0.80677281700012 -0.8848936977637956 L -1.5345245869211026 1.0951333870034379 L -1.6689830426338534 1.049533360776382 Z M -1.9634113200836805 -1.2668247282439187 L -1.9616859136859002 -1.2755750035469486 L -1.9614394270576458 -1.2763144634317114 L -1.7838458114003828 -1.2161717261376488 L -2.410168333794699 0.7982402432710667 L -2.545612736020467 0.7522704871016295 Z M -2.891556718775454 0.7579396795514799 L -1.0173956408434663 1.3933822071912072 L -1.1088421799258317 1.6631618218155984 L -2.983126501171947 1.0278425374899989 Z M -2.7497036642150725 1.229838329344442 L -1.4168272219296485 1.6817715622488025 L -1.5470954049620746 2.057047453766058 L -2.8745491414259035 1.6070861138877333 Z M -3.5149214016307178 2.5964834397007137 L -3.0204692253524814 1.1380220603196953 L -2.8600064303588963 1.192495605163908 L -3.343489951679814 2.654531040654614 Z M -2.9324734990656767 1.7820916199483245 L -2.9111524057216753 1.7175121233456836 L -1.5853008323414999 2.1669804899675005 L -1.607607872198519 2.2311902566277597 Z M -1.811822043707252 3.1738783663865404 L -1.3065244557858242 1.7191142864293374 L -1.146184904106367 1.7734645879594226 L -1.6406370803846027 3.2319259673404406 Z" fill="#393536" transform="matrix(1,0,0,1,0,0)" fill-rule="nonzero"></path></g></g><g><path d=" M 0.516 0.040500000000000314 L 0.789 0.040500000000000314 L 0.552 1.0035000000000003 L 0.2475 1.0035000000000003 L 0.0105 0.040500000000000314 L 0.28350000000000003 0.040500000000000314 L 0.399 0.6840000000000003 L 0.516 0.040500000000000314 M 1.065030029296875 0.2550000000000002 L 1.255530029296875 0.2550000000000002 Q 1.369530029296875 0.2550000000000002 1.419030029296875 0.30300000000000027 Q 1.468530029296875 0.3510000000000003 1.468530029296875 0.4410000000000003 L 1.468530029296875 0.8175000000000003 Q 1.468530029296875 0.9075000000000003 1.419030029296875 0.9555000000000002 Q 1.369530029296875 1.0035000000000003 1.255530029296875 1.0035000000000003 L 1.065030029296875 1.0035000000000003 Q 0.951030029296875 1.0035000000000003 0.901530029296875 0.9555000000000002 Q 0.852030029296875 0.9075000000000003 0.852030029296875 0.8175000000000003 L 0.852030029296875 0.4410000000000003 Q 0.852030029296875 0.3510000000000003 0.901530029296875 0.30300000000000027 Q 0.951030029296875 0.2550000000000002 1.065030029296875 0.2550000000000002 M 1.2180300292968749 0.7935000000000003 L 1.2180300292968749 0.4650000000000003 Q 1.2180300292968749 0.4320000000000003 1.180530029296875 0.4320000000000003 L 1.140030029296875 0.4320000000000003 Q 1.102530029296875 0.4320000000000003 1.102530029296875 0.4650000000000003 L 1.102530029296875 0.7935000000000003 Q 1.102530029296875 0.8265000000000002 1.140030029296875 0.8265000000000002 L 1.180530029296875 0.8265000000000002 Q 1.2180300292968749 0.8265000000000002 1.2180300292968749 0.7935000000000003 M 1.92905712890625 0.2550000000000002 L 2.17955712890625 0.2550000000000002 L 2.17955712890625 1.0110000000000003 Q 2.17955712890625 1.1970000000000003 1.95905712890625 1.1970000000000003 L 1.60055712890625 1.1970000000000003 L 1.60055712890625 1.0170000000000003 L 1.88705712890625 1.0170000000000003 Q 1.92455712890625 1.0170000000000003 1.92455712890625 0.9840000000000003 L 1.92455712890625 0.8775000000000003 Q 1.89605712890625 0.9585000000000002 1.79255712890625 0.9585000000000002 L 1.76555712890625 0.9585000000000002 Q 1.56605712890625 0.9585000000000002 1.56605712890625 0.7725000000000003 L 1.56605712890625 0.4410000000000003 Q 1.56605712890625 0.2550000000000002 1.76555712890625 0.2550000000000002 L 1.79255712890625 0.2550000000000002 Q 1.90805712890625 0.2550000000000002 1.92905712890625 0.3510000000000003 L 1.92905712890625 0.2550000000000002 M 1.85855712890625 0.7710000000000002 L 1.88405712890625 0.7710000000000002 Q 1.92455712890625 0.7710000000000002 1.92455712890625 0.7260000000000002 L 1.92455712890625 0.48750000000000027 Q 1.92455712890625 0.4425000000000002 1.88405712890625 0.4425000000000002 L 1.85855712890625 0.4425000000000002 Q 1.82105712890625 0.4425000000000002 1.82105712890625 0.47550000000000026 L 1.82105712890625 0.7380000000000002 Q 1.82105712890625 0.7710000000000002 1.85855712890625 0.7710000000000002 M 2.65056298828125 0.2550000000000002 L 2.90556298828125 0.2550000000000002 L 2.90556298828125 1.0035000000000003 L 2.65506298828125 1.0035000000000003 L 2.65506298828125 0.9075000000000003 Q 2.63406298828125 1.0035000000000003 2.51856298828125 1.0035000000000003 L 2.49156298828125 1.0035000000000003 Q 2.29206298828125 1.0035000000000003 2.29206298828125 0.8175000000000003 L 2.29206298828125 0.2550000000000002 L 2.54706298828125 0.2550000000000002 L 2.54706298828125 0.7830000000000003 Q 2.54706298828125 0.8160000000000003 2.58456298828125 0.8160000000000003 L 2.61006298828125 0.8160000000000003 Q 2.65056298828125 0.8160000000000003 2.65056298828125 0.7710000000000002 L 2.65056298828125 0.2550000000000002 M 3.231076171875 0.2550000000000002 L 3.414076171875 0.2550000000000002 Q 3.634576171875 0.2550000000000002 3.634576171875 0.4410000000000003 L 3.634576171875 0.6960000000000003 L 3.252076171875 0.6960000000000003 L 3.252076171875 0.7950000000000003 Q 3.252076171875 0.8280000000000003 3.289576171875 0.8280000000000003 L 3.355576171875 0.8280000000000003 Q 3.393076171875 0.8280000000000003 3.393076171875 0.7920000000000003 L 3.393076171875 0.7500000000000002 L 3.634576171875 0.7500000000000002 L 3.634576171875 0.8175000000000003 Q 3.634576171875 1.0035000000000003 3.414076171875 1.0035000000000003 L 3.231076171875 1.0035000000000003 Q 3.010576171875 1.0035000000000003 3.010576171875 0.8175000000000003 L 3.010576171875 0.4410000000000003 Q 3.010576171875 0.2550000000000002 3.231076171875 0.2550000000000002 M 3.252076171875 0.5580000000000003 L 3.393076171875 0.5580000000000003 L 3.393076171875 0.46350000000000025 Q 3.393076171875 0.4305000000000002 3.355576171875 0.4305000000000002 L 3.289576171875 0.4305000000000002 Q 3.252076171875 0.4305000000000002 3.252076171875 0.46350000000000025 L 3.252076171875 0.5580000000000003 M 4.29460693359375 0.8160000000000003 L 4.62310693359375 0.8160000000000003 L 4.62310693359375 1.0035000000000003 L 4.03210693359375 1.0035000000000003 L 4.03210693359375 0.040500000000000314 L 4.60960693359375 0.040500000000000314 L 4.60960693359375 0.2280000000000003 L 4.29460693359375 0.2280000000000003 L 4.29460693359375 0.4245000000000003 L 4.56610693359375 0.4245000000000003 L 4.56610693359375 0.6120000000000003 L 4.29460693359375 0.6120000000000003 L 4.29460693359375 0.8160000000000003 M 5.09256884765625 0.2550000000000002 L 5.11956884765625 0.2550000000000002 Q 5.31906884765625 0.2550000000000002 5.31906884765625 0.4410000000000003 L 5.31906884765625 1.0035000000000003 L 5.06406884765625 1.0035000000000003 L 5.06406884765625 0.47550000000000026 Q 5.06406884765625 0.4425000000000002 5.02656884765625 0.4425000000000002 L 5.00106884765625 0.4425000000000002 Q 4.96056884765625 0.4425000000000002 4.96056884765625 0.48750000000000027 L 4.96056884765625 1.0035000000000003 L 4.70556884765625 1.0035000000000003 L 4.70556884765625 0.2550000000000002 L 4.95606884765625 0.2550000000000002 L 4.95606884765625 0.3510000000000003 Q 4.97706884765625 0.2550000000000002 5.09256884765625 0.2550000000000002 M 6.01808203125 0.5445000000000002 L 5.77208203125 0.5445000000000002 L 5.77208203125 0.47550000000000026 Q 5.77208203125 0.4425000000000002 5.7345820312499995 0.4425000000000002 L 5.70908203125 0.4425000000000002 Q 5.67158203125 0.4425000000000002 5.67158203125 0.47550000000000026 L 5.67158203125 0.7830000000000003 Q 5.67158203125 0.8160000000000003 5.70908203125 0.8160000000000003 L 5.7345820312499995 0.8160000000000003 Q 5.77208203125 0.8160000000000003 5.77208203125 0.7830000000000003 L 5.77208203125 0.7140000000000003 L 6.01808203125 0.7140000000000003 L 6.01808203125 0.8175000000000003 Q 6.01808203125 1.0035000000000003 5.79758203125 1.0035000000000003 L 5.63708203125 1.0035000000000003 Q 5.41658203125 1.0035000000000003 5.41658203125 0.8175000000000003 L 5.41658203125 0.4410000000000003 Q 5.41658203125 0.2550000000000002 5.63708203125 0.2550000000000002 L 5.79758203125 0.2550000000000002 Q 6.01808203125 0.2550000000000002 6.01808203125 0.4410000000000003 L 6.01808203125 0.5445000000000002 M 6.363065185546875 1.0035000000000003 L 6.108065185546875 1.0035000000000003 L 6.108065185546875 2.220446049250313e-16 L 6.363065185546875 2.220446049250313e-16 L 6.363065185546875 1.0035000000000003 M 6.831065185546875 0.2550000000000002 L 7.081565185546875 0.2550000000000002 L 7.081565185546875 1.0035000000000003 L 6.826565185546875 1.0035000000000003 L 6.826565185546875 0.9225000000000003 Q 6.798065185546875 1.0035000000000003 6.694565185546875 1.0035000000000003 L 6.667565185546875 1.0035000000000003 Q 6.468065185546875 1.0035000000000003 6.468065185546875 0.8175000000000003 L 6.468065185546875 0.4410000000000003 Q 6.468065185546875 0.2550000000000002 6.667565185546875 0.2550000000000002 L 6.694565185546875 0.2550000000000002 Q 6.8100651855468755 0.2550000000000002 6.831065185546875 0.3510000000000003 L 6.831065185546875 0.2550000000000002 M 6.760565185546875 0.8160000000000003 L 6.7860651855468745 0.8160000000000003 Q 6.826565185546875 0.8160000000000003 6.826565185546875 0.7710000000000002 L 6.826565185546875 0.48750000000000027 Q 6.826565185546875 0.4425000000000002 6.7860651855468745 0.4425000000000002 L 6.760565185546875 0.4425000000000002 Q 6.723065185546875 0.4425000000000002 6.723065185546875 0.47550000000000026 L 6.723065185546875 0.7830000000000003 Q 6.723065185546875 0.8160000000000003 6.760565185546875 0.8160000000000003 M 7.395071044921875 0.2550000000000002 L 7.486571044921875 0.7350000000000003 L 7.576571044921875 0.2550000000000002 L 7.830071044921875 0.2550000000000002 L 7.638071044921875 1.0035000000000003 L 7.333571044921875 1.0035000000000003 L 7.141571044921875 0.2550000000000002 L 7.395071044921875 0.2550000000000002 M 8.095547607421874 0.2550000000000002 L 8.278547607421874 0.2550000000000002 Q 8.499047607421875 0.2550000000000002 8.499047607421875 0.4410000000000003 L 8.499047607421875 0.6960000000000003 L 8.116547607421875 0.6960000000000003 L 8.116547607421875 0.7950000000000003 Q 8.116547607421875 0.8280000000000003 8.154047607421875 0.8280000000000003 L 8.220047607421876 0.8280000000000003 Q 8.257547607421875 0.8280000000000003 8.257547607421875 0.7920000000000003 L 8.257547607421875 0.7500000000000002 L 8.499047607421875 0.7500000000000002 L 8.499047607421875 0.8175000000000003 Q 8.499047607421875 1.0035000000000003 8.278547607421874 1.0035000000000003 L 8.095547607421874 1.0035000000000003 Q 7.875047607421875 1.0035000000000003 7.875047607421875 0.8175000000000003 L 7.875047607421875 0.4410000000000003 Q 7.875047607421875 0.2550000000000002 8.095547607421874 0.2550000000000002 M 8.116547607421875 0.5580000000000003 L 8.257547607421875 0.5580000000000003 L 8.257547607421875 0.46350000000000025 Q 8.257547607421875 0.4305000000000002 8.220047607421876 0.4305000000000002 L 8.154047607421875 0.4305000000000002 Q 8.116547607421875 0.4305000000000002 8.116547607421875 0.46350000000000025 L 8.116547607421875 0.5580000000000003 M 8.896578369140625 0.040500000000000314 L 9.159078369140625 0.040500000000000314 L 9.159078369140625 1.0035000000000003 L 8.896578369140625 1.0035000000000003 L 8.896578369140625 0.040500000000000314 M 9.666085693359374 0.2550000000000002 L 9.693085693359375 0.2550000000000002 Q 9.892585693359376 0.2550000000000002 9.892585693359376 0.4410000000000003 L 9.892585693359376 1.0035000000000003 L 9.637585693359375 1.0035000000000003 L 9.637585693359375 0.47550000000000026 Q 9.637585693359375 0.4425000000000002 9.600085693359375 0.4425000000000002 L 9.574585693359374 0.4425000000000002 Q 9.534085693359375 0.4425000000000002 9.534085693359375 0.48750000000000027 L 9.534085693359375 1.0035000000000003 L 9.279085693359375 1.0035000000000003 L 9.279085693359375 0.2550000000000002 L 9.529585693359374 0.2550000000000002 L 9.529585693359374 0.3510000000000003 Q 9.550585693359375 0.2550000000000002 9.666085693359374 0.2550000000000002 M 10.384598876953126 0.4425000000000002 L 10.290098876953126 0.4425000000000002 L 10.290098876953126 0.7830000000000003 Q 10.290098876953126 0.8160000000000003 10.327598876953125 0.8160000000000003 L 10.383098876953126 0.8160000000000003 L 10.383098876953126 1.0035000000000003 L 10.255598876953124 1.0035000000000003 Q 10.035098876953125 1.0035000000000003 10.035098876953125 0.8175000000000003 L 10.035098876953125 0.4425000000000002 L 9.952598876953125 0.4425000000000002 L 9.952598876953125 0.2550000000000002 L 10.035098876953125 0.2550000000000002 L 10.035098876953125 0.10800000000000021 L 10.290098876953126 0.10800000000000021 L 10.290098876953126 0.2550000000000002 L 10.384598876953126 0.2550000000000002 L 10.384598876953126 0.4425000000000002 M 10.665066650390624 0.2550000000000002 L 10.848066650390624 0.2550000000000002 Q 11.068566650390625 0.2550000000000002 11.068566650390625 0.4410000000000003 L 11.068566650390625 0.6960000000000003 L 10.686066650390625 0.6960000000000003 L 10.686066650390625 0.7950000000000003 Q 10.686066650390625 0.8280000000000003 10.723566650390625 0.8280000000000003 L 10.789566650390626 0.8280000000000003 Q 10.827066650390625 0.8280000000000003 10.827066650390625 0.7920000000000003 L 10.827066650390625 0.7500000000000002 L 11.068566650390625 0.7500000000000002 L 11.068566650390625 0.8175000000000003 Q 11.068566650390625 1.0035000000000003 10.848066650390624 1.0035000000000003 L 10.665066650390624 1.0035000000000003 Q 10.444566650390625 1.0035000000000003 10.444566650390625 0.8175000000000003 L 10.444566650390625 0.4410000000000003 Q 10.444566650390625 0.2550000000000002 10.665066650390624 0.2550000000000002 M 10.686066650390625 0.5580000000000003 L 10.827066650390625 0.5580000000000003 L 10.827066650390625 0.46350000000000025 Q 10.827066650390625 0.4305000000000002 10.789566650390626 0.4305000000000002 L 10.723566650390625 0.4305000000000002 Q 10.686066650390625 0.4305000000000002 10.686066650390625 0.46350000000000025 L 10.686066650390625 0.5580000000000003 M 11.5785791015625 0.24750000000000028 L 11.6010791015625 0.24750000000000028 L 11.6010791015625 0.46950000000000025 L 11.5155791015625 0.46950000000000025 Q 11.4210791015625 0.46950000000000025 11.4210791015625 0.5715000000000003 L 11.4210791015625 1.0035000000000003 L 11.1660791015625 1.0035000000000003 L 11.1660791015625 0.2550000000000002 L 11.4165791015625 0.2550000000000002 L 11.4165791015625 0.3705000000000003 Q 11.4285791015625 0.3135000000000002 11.4705791015625 0.2805000000000003 Q 11.5125791015625 0.24750000000000028 11.5785791015625 0.24750000000000028 M 11.664112060546875 0.18000000000000027 L 11.664112060546875 2.220446049250313e-16 L 11.928112060546875 2.220446049250313e-16 L 11.928112060546875 0.18000000000000027 L 11.664112060546875 0.18000000000000027 M 11.923612060546875 1.0035000000000003 L 11.668612060546875 1.0035000000000003 L 11.668612060546875 0.2550000000000002 L 11.923612060546875 0.2550000000000002 L 11.923612060546875 1.0035000000000003 M 12.249112060546874 0.2550000000000002 L 12.439612060546875 0.2550000000000002 Q 12.553612060546875 0.2550000000000002 12.603112060546875 0.30300000000000027 Q 12.652612060546875 0.3510000000000003 12.652612060546875 0.4410000000000003 L 12.652612060546875 0.8175000000000003 Q 12.652612060546875 0.9075000000000003 12.603112060546875 0.9555000000000002 Q 12.553612060546875 1.0035000000000003 12.439612060546875 1.0035000000000003 L 12.249112060546874 1.0035000000000003 Q 12.135112060546875 1.0035000000000003 12.085612060546875 0.9555000000000002 Q 12.036112060546875 0.9075000000000003 12.036112060546875 0.8175000000000003 L 12.036112060546875 0.4410000000000003 Q 12.036112060546875 0.3510000000000003 12.085612060546875 0.30300000000000027 Q 12.135112060546875 0.2550000000000002 12.249112060546874 0.2550000000000002 M 12.402112060546875 0.7935000000000003 L 12.402112060546875 0.4650000000000003 Q 12.402112060546875 0.4320000000000003 12.364612060546875 0.4320000000000003 L 12.324112060546875 0.4320000000000003 Q 12.286612060546876 0.4320000000000003 12.286612060546876 0.4650000000000003 L 12.286612060546876 0.7935000000000003 Q 12.286612060546876 0.8265000000000002 12.324112060546875 0.8265000000000002 L 12.364612060546875 0.8265000000000002 Q 12.402112060546875 0.8265000000000002 12.402112060546875 0.7935000000000003 M 13.17763916015625 0.24750000000000028 L 13.20013916015625 0.24750000000000028 L 13.20013916015625 0.46950000000000025 L 13.11463916015625 0.46950000000000025 Q 13.02013916015625 0.46950000000000025 13.02013916015625 0.5715000000000003 L 13.02013916015625 1.0035000000000003 L 12.76513916015625 1.0035000000000003 L 12.76513916015625 0.2550000000000002 L 13.01563916015625 0.2550000000000002 L 13.01563916015625 0.3705000000000003 Q 13.02763916015625 0.3135000000000002 13.06963916015625 0.2805000000000003 Q 13.11163916015625 0.24750000000000028 13.17763916015625 0.24750000000000028 M 13.590172119140625 0.8055000000000003 L 13.590172119140625 0.7455000000000003 Q 13.590172119140625 0.7125000000000004 13.552672119140626 0.7125000000000004 L 13.461172119140626 0.7125000000000004 Q 13.245172119140625 0.7125000000000004 13.245172119140625 0.5280000000000002 L 13.245172119140625 0.4410000000000003 Q 13.245172119140625 0.2550000000000002 13.465672119140624 0.2550000000000002 L 13.605172119140626 0.2550000000000002 Q 13.825672119140625 0.2550000000000002 13.825672119140625 0.4410000000000003 L 13.825672119140625 0.5040000000000002 L 13.582672119140625 0.5040000000000002 L 13.582672119140625 0.4530000000000003 Q 13.582672119140625 0.42000000000000026 13.545172119140625 0.42000000000000026 L 13.530172119140625 0.42000000000000026 Q 13.492672119140625 0.42000000000000026 13.492672119140625 0.4530000000000003 L 13.492672119140625 0.5190000000000003 Q 13.492672119140625 0.5520000000000003 13.530172119140625 0.5520000000000003 L 13.621672119140625 0.5520000000000003 Q 13.737172119140626 0.5520000000000003 13.787422119140626 0.5992500000000003 Q 13.837672119140626 0.6465000000000003 13.837672119140626 0.7350000000000003 L 13.837672119140626 0.8175000000000003 Q 13.837672119140626 1.0035000000000003 13.617172119140625 1.0035000000000003 L 13.470172119140624 1.0035000000000003 Q 13.249672119140625 1.0035000000000003 13.249672119140625 0.8175000000000003 L 13.249672119140625 0.7560000000000002 L 13.497172119140625 0.7560000000000002 L 13.497172119140625 0.8055000000000003 Q 13.497172119140625 0.8385000000000002 13.534672119140625 0.8385000000000002 L 13.552672119140626 0.8385000000000002 Q 13.590172119140625 0.8385000000000002 13.590172119140625 0.8055000000000003" fill="#595959" fill-rule="nonzero"></path></g><g><path d=" M 0.024169921874999997 1.6913780639648435 L 0.024169921874999997 1.542430920410156 L 0.4764495849609374 1.542430920410156 L 0.4764495849609374 1.6913780639648435 L 0.44230957031249996 1.6913780639648435 L 0.44230957031249996 1.576873059082031 L 0.2691925048828125 1.576873059082031 L 0.2691925048828125 1.9234093139648436 L 0.36194458007812497 1.9234093139648436 L 0.36194458007812497 1.957549328613281 L 0.13867492675781248 1.957549328613281 L 0.13867492675781248 1.9234093139648436 L 0.23142700195312496 1.9234093139648436 L 0.23142700195312496 1.576873059082031 L 0.058309936523437494 1.576873059082031 L 0.058309936523437494 1.6913780639648435 L 0.024169921874999997 1.6913780639648435 M 0.5152725219726562 1.6699272583007811 L 0.6210159301757812 1.6699272583007811 L 0.6210159301757812 1.9234093139648436 L 0.6892959594726562 1.9234093139648436 L 0.6892959594726562 1.957549328613281 L 0.5152725219726562 1.957549328613281 L 0.5152725219726562 1.9234093139648436 L 0.5832504272460937 1.9234093139648436 L 0.5832504272460937 1.703765148925781 L 0.5152725219726562 1.703765148925781 L 0.5152725219726562 1.6699272583007811 M 0.5642166137695311 1.5892601440429686 Q 0.5642166137695311 1.5823112915039061 0.5667846679687499 1.5761177490234373 Q 0.5693527221679686 1.5699242065429686 0.5738845825195311 1.565392346191406 Q 0.5784164428710936 1.5608604858398436 0.5844589233398436 1.5581413696289061 Q 0.5905014038085936 1.5554222534179685 0.5974502563476561 1.5554222534179685 Q 0.6043991088867187 1.5554222534179685 0.6105926513671874 1.5581413696289061 Q 0.6167861938476562 1.5608604858398436 0.6214691162109374 1.565392346191406 Q 0.6261520385742186 1.5699242065429686 0.6288711547851562 1.5761177490234373 Q 0.6315902709960937 1.5823112915039061 0.6315902709960937 1.5892601440429686 Q 0.6315902709960937 1.596208996582031 0.6288711547851562 1.6024025390624999 Q 0.6261520385742186 1.6085960815429685 0.6214691162109374 1.613127941894531 Q 0.6167861938476562 1.6176598022460935 0.6105926513671874 1.6202278564453123 Q 0.6043991088867187 1.622795910644531 0.5974502563476561 1.622795910644531 Q 0.5905014038085936 1.622795910644531 0.5844589233398436 1.6202278564453123 Q 0.5784164428710936 1.6176598022460935 0.5738845825195311 1.613127941894531 Q 0.5693527221679686 1.6085960815429685 0.5667846679687499 1.6024025390624999 Q 0.5642166137695311 1.596208996582031 0.5642166137695311 1.5892601440429686 M 1.2160491943359373 1.9234093139648436 L 1.2840270996093748 1.9234093139648436 L 1.2840270996093748 1.771440930175781 Q 1.2840270996093748 1.7484795043945311 1.2782867431640623 1.7335243652343748 Q 1.2725463867187496 1.7185692260742185 1.2619720458984371 1.709807629394531 Q 1.2513977050781246 1.7010460327148436 1.2364425659179685 1.6975716064453124 Q 1.2214874267578124 1.6940971801757811 1.2030578613281249 1.6940971801757811 Q 1.1834197998046874 1.6940971801757811 1.1646881103515623 1.7001396606445311 Q 1.1459564208984374 1.7061821411132811 1.1287353515624998 1.7155479858398435 Q 1.1115142822265622 1.724913830566406 1.0967102050781248 1.7359413574218747 Q 1.0819061279296873 1.7469688842773436 1.0707275390624997 1.756938977050781 L 1.0707275390624997 1.7602623413085936 L 1.0707275390624997 1.9234093139648436 L 1.1387054443359372 1.9234093139648436 L 1.1387054443359372 1.957549328613281 L 0.9649841308593748 1.957549328613281 L 0.9649841308593748 1.9234093139648436 L 1.0329620361328122 1.9234093139648436 L 1.0329620361328122 1.771440930175781 Q 1.0329620361328122 1.7484795043945311 1.0272216796874998 1.7335243652343748 Q 1.0214813232421873 1.7185692260742185 1.0107559204101562 1.709807629394531 Q 1.0000305175781248 1.7010460327148436 0.9850753784179687 1.6975716064453124 Q 0.9701202392578123 1.6940971801757811 0.9519927978515623 1.6940971801757811 Q 0.9317504882812498 1.6940971801757811 0.9127166748046873 1.7001396606445311 Q 0.8936828613281249 1.7061821411132811 0.8766128540039061 1.7152458618164061 Q 0.8595428466796874 1.7243095825195311 0.8450408935546874 1.7353371093749999 Q 0.8305389404296873 1.7463646362304686 0.8193603515624999 1.756334729003906 L 0.8193603515624999 1.9234093139648436 L 0.8876403808593749 1.9234093139648436 L 0.8876403808593749 1.957549328613281 L 0.7136169433593749 1.957549328613281 L 0.7136169433593749 1.9234093139648436 L 0.7815948486328124 1.9234093139648436 L 0.7815948486328124 1.703765148925781 L 0.7136169433593749 1.703765148925781 L 0.7136169433593749 1.6699272583007811 L 0.8193603515624999 1.6699272583007811 L 0.8193603515624999 1.7212883422851561 Q 0.8335601806640623 1.7089012573242186 0.8495727539062499 1.697722668457031 Q 0.8655853271484374 1.6865440795898436 0.8834106445312498 1.6782356689453124 Q 0.9012359619140624 1.6699272583007811 0.9207229614257811 1.6649422119140622 Q 0.9402099609374999 1.6599571655273435 0.9616607666015624 1.6599571655273435 Q 1.0048645019531248 1.6599571655273435 1.0305450439453123 1.6770271728515622 Q 1.0562255859374998 1.6940971801757811 1.0655914306640624 1.7243095825195311 Q 1.0797912597656247 1.7122246215820311 1.0967102050781248 1.7005928466796874 Q 1.1136291503906248 1.6889610717773436 1.1325119018554686 1.6798973510742186 Q 1.1513946533203123 1.6708336303710936 1.1717880249023436 1.6653953979492186 Q 1.1921813964843748 1.6599571655273435 1.2130279541015623 1.6599571655273435 Q 1.2402191162109373 1.6599571655273435 1.2606124877929685 1.6670570800781248 Q 1.2810058593749998 1.674156994628906 1.2946014404296873 1.6871483276367185 Q 1.3081970214843748 1.7001396606445311 1.3149948120117185 1.7187202880859374 Q 1.3217926025390623 1.7373009155273436 1.3217926025390623 1.7602623413085936 L 1.3217926025390623 1.9234093139648436 L 1.3900726318359373 1.9234093139648436 L 1.3900726318359373 1.957549328613281 L 1.2160491943359373 1.957549328613281 L 1.2160491943359373 1.9234093139648436 M 1.7343429565429682 1.799236340332031 Q 1.7328323364257807 1.7786919067382811 1.724977111816406 1.7602623413085936 Q 1.7171218872070309 1.741832775878906 1.701411437988281 1.7277840087890624 Q 1.685700988769531 1.7137352416992186 1.6618331909179684 1.7054268310546874 Q 1.637965393066406 1.6971184204101561 1.6044296264648434 1.6971184204101561 Q 1.5730087280273435 1.6971184204101561 1.5488388061523435 1.7054268310546874 Q 1.5246688842773435 1.7137352416992186 1.5077499389648434 1.7277840087890624 Q 1.4908309936523434 1.741832775878906 1.4811630249023433 1.7602623413085936 Q 1.4714950561523434 1.7786919067382811 1.468775939941406 1.799236340332031 L 1.7343429565429682 1.799236340332031 M 1.6038253784179684 1.9651024291992185 Q 1.5642471313476558 1.9651024291992185 1.532070922851562 1.9546791503906247 Q 1.4998947143554684 1.944255871582031 1.477235412597656 1.9247688720703122 Q 1.4545761108398434 1.9052818725585936 1.4421890258789059 1.8774864624023435 Q 1.4298019409179683 1.8496910522460936 1.4298019409179683 1.8152489135742185 Q 1.4298019409179683 1.7817131469726561 1.442793273925781 1.7537666748046874 Q 1.4557846069335934 1.7258202026367186 1.479048156738281 1.7057289550781247 Q 1.5023117065429683 1.685637707519531 1.5343368530273434 1.6746101806640623 Q 1.5663619995117184 1.6635826538085936 1.6044296264648434 1.6635826538085936 Q 1.644007873535156 1.6635826538085936 1.6754287719726557 1.674761242675781 Q 1.706849670410156 1.6859398315429686 1.728602600097656 1.706937451171875 Q 1.7503555297851559 1.727935070800781 1.7618362426757808 1.7578453491210935 Q 1.773316955566406 1.7877556274414061 1.773316955566406 1.825219006347656 L 1.773316955566406 1.831865734863281 L 1.468775939941406 1.831865734863281 Q 1.4708908081054684 1.854827160644531 1.480709838867187 1.8732567260742186 Q 1.4905288696289059 1.891686291503906 1.5077499389648434 1.9046776245117185 Q 1.5249710083007808 1.917668957519531 1.5489898681640621 1.9246178100585936 Q 1.5730087280273435 1.931566662597656 1.6038253784179684 1.931566662597656 Q 1.6334335327148435 1.931566662597656 1.6553375244140622 1.926732678222656 Q 1.677241516113281 1.921898693847656 1.6924987792968746 1.9137413452148435 Q 1.7077560424804683 1.905583996582031 1.7172729492187497 1.895311779785156 Q 1.7267898559570307 1.885039562988281 1.7319259643554683 1.874163098144531 L 1.7696914672851558 1.874163098144531 Q 1.7518661499023434 1.920085949707031 1.7091156005859371 1.9425941894531247 Q 1.666365051269531 1.9651024291992185 1.6038253784179684 1.9651024291992185 M 1.796127319335937 1.542430920410156 L 1.901870727539062 1.542430920410156 L 1.901870727539062 1.8635887573242185 Q 1.901870727539062 1.8817161987304685 1.904891967773437 1.8930458496093747 Q 1.907913208007812 1.904375500488281 1.9144088745117183 1.9105690429687499 Q 1.9209045410156245 1.9167625854492185 1.9313278198242183 1.918877453613281 Q 1.9417510986328121 1.9209923217773435 1.956253051757812 1.9209923217773435 L 1.985861206054687 1.9209923217773435 L 1.985861206054687 1.957549328613281 L 1.9568572998046871 1.957549328613281 Q 1.9326873779296871 1.957549328613281 1.915164184570312 1.9531685302734372 Q 1.897640991210937 1.9487877319335936 1.8863113403320309 1.9379112670898435 Q 1.8749816894531246 1.9270348022460935 1.8695434570312495 1.9087562988281248 Q 1.8641052246093746 1.890477795410156 1.8641052246093746 1.8623802612304685 L 1.8641052246093746 1.5762688110351561 L 1.796127319335937 1.5762688110351561 L 1.796127319335937 1.542430920410156 M 2.329225158691406 1.799236340332031 Q 2.3277145385742184 1.7786919067382811 2.319859313964843 1.7602623413085936 Q 2.3120040893554683 1.741832775878906 2.296293640136718 1.7277840087890624 Q 2.280583190917968 1.7137352416992186 2.256715393066406 1.7054268310546874 Q 2.232847595214843 1.6971184204101561 2.199311828613281 1.6971184204101561 Q 2.1678909301757807 1.6971184204101561 2.1437210083007807 1.7054268310546874 Q 2.1195510864257807 1.7137352416992186 2.102632141113281 1.7277840087890624 Q 2.0857131958007806 1.741832775878906 2.076045227050781 1.7602623413085936 Q 2.066377258300781 1.7786919067382811 2.063658142089843 1.799236340332031 L 2.329225158691406 1.799236340332031 M 2.198707580566406 1.9651024291992185 Q 2.1591293334960935 1.9651024291992185 2.1269531249999996 1.9546791503906247 Q 2.0947769165039056 1.944255871582031 2.072117614746093 1.9247688720703122 Q 2.0494583129882806 1.9052818725585936 2.0370712280273433 1.8774864624023435 Q 2.024684143066406 1.8496910522460936 2.024684143066406 1.8152489135742185 Q 2.024684143066406 1.7817131469726561 2.0376754760742184 1.7537666748046874 Q 2.050666809082031 1.7258202026367186 2.0739303588867184 1.7057289550781247 Q 2.097193908691406 1.685637707519531 2.129219055175781 1.6746101806640623 Q 2.1612442016601556 1.6635826538085936 2.199311828613281 1.6635826538085936 Q 2.238890075683593 1.6635826538085936 2.2703109741210934 1.674761242675781 Q 2.301731872558593 1.6859398315429686 2.323484802246093 1.706937451171875 Q 2.3452377319335933 1.727935070800781 2.356718444824218 1.7578453491210935 Q 2.368199157714843 1.7877556274414061 2.368199157714843 1.825219006347656 L 2.368199157714843 1.831865734863281 L 2.063658142089843 1.831865734863281 Q 2.065773010253906 1.854827160644531 2.0755920410156246 1.8732567260742186 Q 2.0854110717773433 1.891686291503906 2.102632141113281 1.9046776245117185 Q 2.1198532104492185 1.917668957519531 2.1438720703124994 1.9246178100585936 Q 2.1678909301757807 1.931566662597656 2.198707580566406 1.931566662597656 Q 2.2283157348632807 1.931566662597656 2.2502197265624995 1.926732678222656 Q 2.272123718261718 1.921898693847656 2.287380981445312 1.9137413452148435 Q 2.302638244628906 1.905583996582031 2.312155151367187 1.895311779785156 Q 2.3216720581054684 1.885039562988281 2.326808166503906 1.874163098144531 L 2.3645736694335935 1.874163098144531 Q 2.346748352050781 1.920085949707031 2.3039978027343744 1.9425941894531247 Q 2.2612472534179684 1.9651024291992185 2.198707580566406 1.9651024291992185 M 2.430587768554687 1.957549328613281 L 2.430587768554687 1.851805920410156 L 2.464425659179687 1.851805920410156 L 2.464425659179687 1.8702354858398436 Q 2.464425659179687 1.886852307128906 2.4757553100585934 1.8987862060546872 Q 2.4870849609374996 1.9107201049804685 2.5049102783203123 1.9184242675781247 Q 2.5227355957031246 1.926128430175781 2.544337463378906 1.929753918457031 Q 2.5659393310546874 1.933379406738281 2.5864837646484373 1.933379406738281 Q 2.6106536865234373 1.933379406738281 2.6308959960937495 1.9308113525390622 Q 2.651138305664062 1.9282432983398434 2.6659423828124997 1.9222008178710934 Q 2.680746459960937 1.9161583374023434 2.6889038085937496 1.9063393066406247 Q 2.697061157226562 1.896520275878906 2.697061157226562 1.882018322753906 Q 2.697061157226562 1.8684227416992185 2.6896591186523433 1.8589058349609373 Q 2.6822570800781245 1.849388928222656 2.6697189331054685 1.8430443237304686 Q 2.657180786132812 1.836699719238281 2.640412902832031 1.832469982910156 Q 2.6236450195312497 1.828240246582031 2.604762268066406 1.8250679443359372 Q 2.5858795166015622 1.8218956420898436 2.5659393310546874 1.8190254638671872 Q 2.545999145507812 1.816155285644531 2.5271163940429684 1.8120766113281248 Q 2.5082336425781246 1.8079979370117185 2.4914657592773435 1.802257580566406 Q 2.4746978759765623 1.7965172241210936 2.462159729003906 1.7876045654296873 Q 2.44962158203125 1.7786919067382811 2.442219543457031 1.766002697753906 Q 2.4348175048828122 1.753313488769531 2.4348175048828122 1.7354881713867185 Q 2.4348175048828122 1.7125267456054685 2.446298217773437 1.69787373046875 Q 2.457778930664062 1.683220715332031 2.47620849609375 1.674761242675781 Q 2.494638061523437 1.666301770019531 2.5180526733398434 1.6631294677734374 Q 2.5414672851562496 1.6599571655273435 2.5653350830078123 1.6599571655273435 Q 2.600079345703125 1.6599571655273435 2.6290832519531246 1.6678123901367186 Q 2.6580871582031245 1.6756676147460936 2.6780273437499997 1.6883568237304685 L 2.6780273437499997 1.6699272583007811 L 2.711865234375 1.6699272583007811 L 2.711865234375 1.7669090698242185 L 2.6780273437499997 1.7669090698242185 L 2.6780273437499997 1.7445518920898435 Q 2.6780273437499997 1.7348839233398436 2.672891235351562 1.7271797607421873 Q 2.6677551269531246 1.719475598144531 2.6589935302734373 1.7135841796874998 Q 2.6502319335937496 1.7076927612304686 2.639053344726562 1.7036140869140624 Q 2.6278747558593745 1.699535412597656 2.615638732910156 1.6969673583984373 Q 2.603402709960937 1.6943993041992185 2.5911666870117185 1.6931908081054685 Q 2.5789306640625 1.6919823120117186 2.5683563232421873 1.6919823120117186 Q 2.5206207275390624 1.6919823120117186 2.4962997436523433 1.701348156738281 Q 2.4719787597656246 1.7107140014648436 2.4719787597656246 1.7354881713867185 Q 2.4719787597656246 1.747271008300781 2.4793807983398435 1.755277294921875 Q 2.4867828369140623 1.7632835815429686 2.4993209838867183 1.7688728759765624 Q 2.5118591308593747 1.774462170410156 2.528627014160156 1.7782387207031247 Q 2.545394897460937 1.7820152709960935 2.564277648925781 1.7851875732421874 Q 2.5831604003906246 1.788359875488281 2.6031005859375 1.791532177734375 Q 2.6230407714843746 1.7947044799804686 2.6419235229492184 1.7993874023437497 Q 2.660806274414062 1.804070324707031 2.6775741577148433 1.810717053222656 Q 2.6943420410156245 1.817363781738281 2.706880187988281 1.8271828124999998 Q 2.7194183349609373 1.8370018432617186 2.7268203735351557 1.8508995483398436 Q 2.7342224121093746 1.8647972534179684 2.7342224121093746 1.883831066894531 Q 2.7342224121093746 1.9004478881835936 2.7278778076171872 1.912834973144531 Q 2.7215332031249995 1.9252220581054684 2.710958862304687 1.9344368408203123 Q 2.7003845214843745 1.943651623535156 2.6866378784179683 1.949694104003906 Q 2.672891235351562 1.955736584472656 2.657785034179687 1.9592110107421872 Q 2.642678833007812 1.9626854370117186 2.6272705078125 1.964196057128906 Q 2.611862182617187 1.9657066772460936 2.5982666015624996 1.9657066772460936 Q 2.5529479980468746 1.9657066772460936 2.519563293457031 1.9560387084960935 Q 2.4861785888671872 1.9463707397460934 2.464425659179687 1.930962414550781 L 2.464425659179687 1.957549328613281 L 2.430587768554687 1.957549328613281 M 2.788151550292968 1.957549328613281 L 2.788151550292968 1.851805920410156 L 2.821989440917968 1.851805920410156 L 2.821989440917968 1.8702354858398436 Q 2.821989440917968 1.886852307128906 2.8333190917968745 1.8987862060546872 Q 2.8446487426757807 1.9107201049804685 2.8624740600585934 1.9184242675781247 Q 2.8802993774414056 1.926128430175781 2.901901245117187 1.929753918457031 Q 2.9235031127929685 1.933379406738281 2.9440475463867184 1.933379406738281 Q 2.9682174682617184 1.933379406738281 2.9884597778320305 1.9308113525390622 Q 3.008702087402343 1.9282432983398434 3.023506164550781 1.9222008178710934 Q 3.038310241699218 1.9161583374023434 3.0464675903320306 1.9063393066406247 Q 3.054624938964843 1.896520275878906 3.054624938964843 1.882018322753906 Q 3.054624938964843 1.8684227416992185 3.0472229003906244 1.8589058349609373 Q 3.0398208618164055 1.849388928222656 3.0272827148437496 1.8430443237304686 Q 3.014744567871093 1.836699719238281 2.997976684570312 1.832469982910156 Q 2.981208801269531 1.828240246582031 2.962326049804687 1.8250679443359372 Q 2.9434432983398433 1.8218956420898436 2.9235031127929685 1.8190254638671872 Q 2.903562927246093 1.816155285644531 2.8846801757812495 1.8120766113281248 Q 2.8657974243164057 1.8079979370117185 2.8490295410156246 1.802257580566406 Q 2.8322616577148434 1.7965172241210936 2.819723510742187 1.7876045654296873 Q 2.807185363769531 1.7786919067382811 2.799783325195312 1.766002697753906 Q 2.7923812866210933 1.753313488769531 2.7923812866210933 1.7354881713867185 Q 2.7923812866210933 1.7125267456054685 2.803861999511718 1.69787373046875 Q 2.815342712402343 1.683220715332031 2.833772277832031 1.674761242675781 Q 2.852201843261718 1.666301770019531 2.8756164550781245 1.6631294677734374 Q 2.8990310668945307 1.6599571655273435 2.9228988647460934 1.6599571655273435 Q 2.957643127441406 1.6599571655273435 2.9866470336914057 1.6678123901367186 Q 3.0156509399414055 1.6756676147460936 3.035591125488281 1.6883568237304685 L 3.035591125488281 1.6699272583007811 L 3.069429016113281 1.6699272583007811 L 3.069429016113281 1.7669090698242185 L 3.035591125488281 1.7669090698242185 L 3.035591125488281 1.7445518920898435 Q 3.035591125488281 1.7348839233398436 3.030455017089843 1.7271797607421873 Q 3.0253189086914056 1.719475598144531 3.0165573120117184 1.7135841796874998 Q 3.0077957153320307 1.7076927612304686 2.996617126464843 1.7036140869140624 Q 2.9854385375976555 1.699535412597656 2.973202514648437 1.6969673583984373 Q 2.960966491699218 1.6943993041992185 2.9487304687499996 1.6931908081054685 Q 2.936494445800781 1.6919823120117186 2.9259201049804684 1.6919823120117186 Q 2.8781845092773435 1.6919823120117186 2.8538635253906244 1.701348156738281 Q 2.8295425415039057 1.7107140014648436 2.8295425415039057 1.7354881713867185 Q 2.8295425415039057 1.747271008300781 2.8369445800781246 1.755277294921875 Q 2.8443466186523434 1.7632835815429686 2.8568847656249994 1.7688728759765624 Q 2.869422912597656 1.774462170410156 2.886190795898437 1.7782387207031247 Q 2.902958679199218 1.7820152709960935 2.921841430664062 1.7851875732421874 Q 2.9407241821289056 1.788359875488281 2.960664367675781 1.791532177734375 Q 2.9806045532226557 1.7947044799804686 2.9994873046874995 1.7993874023437497 Q 3.018370056152343 1.804070324707031 3.0351379394531244 1.810717053222656 Q 3.0519058227539055 1.817363781738281 3.064443969726562 1.8271828124999998 Q 3.0769821166992184 1.8370018432617186 3.084384155273437 1.8508995483398436 Q 3.0917861938476556 1.8647972534179684 3.0917861938476556 1.883831066894531 Q 3.0917861938476556 1.9004478881835936 3.0854415893554683 1.912834973144531 Q 3.0790969848632805 1.9252220581054684 3.068522644042968 1.9344368408203123 Q 3.0579483032226555 1.943651623535156 3.0442016601562494 1.949694104003906 Q 3.030455017089843 1.955736584472656 3.015348815917968 1.9592110107421872 Q 3.000242614746093 1.9626854370117186 2.984834289550781 1.964196057128906 Q 2.969425964355468 1.9657066772460936 2.9558303833007806 1.9657066772460936 Q 2.9105117797851556 1.9657066772460936 2.877127075195312 1.9560387084960935 Q 2.8437423706054683 1.9463707397460934 2.821989440917968 1.930962414550781 L 2.821989440917968 1.957549328613281 L 2.788151550292968 1.957549328613281 M 3.7999649047851554 1.6666038940429686 L 3.7999649047851554 1.5777794311523436 L 3.500559997558593 1.5777794311523436 L 3.500559997558593 1.720684094238281 L 3.7310806274414055 1.720684094238281 L 3.7310806274414055 1.755730480957031 L 3.500559997558593 1.755730480957031 L 3.500559997558593 1.9222008178710934 L 3.8041946411132805 1.9222008178710934 L 3.8041946411132805 1.8270317504882811 L 3.838334655761718 1.8270317504882811 L 3.838334655761718 1.957549328613281 L 3.376084899902343 1.957549328613281 L 3.376084899902343 1.9234093139648436 L 3.4627944946289055 1.9234093139648436 L 3.4627944946289055 1.5762688110351561 L 3.376084899902343 1.5762688110351561 L 3.376084899902343 1.542430920410156 L 3.8338027954101555 1.542430920410156 L 3.8338027954101555 1.6666038940429686 L 3.7999649047851554 1.6666038940429686 M 3.875949096679687 1.542430920410156 L 3.981692504882812 1.542430920410156 L 3.981692504882812 1.8635887573242185 Q 3.981692504882812 1.8817161987304685 3.984713745117187 1.8930458496093747 Q 3.987734985351562 1.904375500488281 3.994230651855468 1.9105690429687499 Q 4.000726318359375 1.9167625854492185 4.011149597167968 1.918877453613281 Q 4.021572875976561 1.9209923217773435 4.036074829101562 1.9209923217773435 L 4.065682983398437 1.9209923217773435 L 4.065682983398437 1.957549328613281 L 4.036679077148436 1.957549328613281 Q 4.012509155273436 1.957549328613281 3.994985961914062 1.9531685302734372 Q 3.9774627685546866 1.9487877319335936 3.9661331176757804 1.9379112670898435 Q 3.954803466796874 1.9270348022460935 3.949365234374999 1.9087562988281248 Q 3.9439270019531243 1.890477795410156 3.9439270019531243 1.8623802612304685 L 3.9439270019531243 1.5762688110351561 L 3.875949096679687 1.5762688110351561 L 3.875949096679687 1.542430920410156 M 4.409046936035155 1.799236340332031 Q 4.407536315917968 1.7786919067382811 4.399681091308593 1.7602623413085936 Q 4.391825866699218 1.741832775878906 4.3761154174804675 1.7277840087890624 Q 4.360404968261718 1.7137352416992186 4.336537170410155 1.7054268310546874 Q 4.3126693725585925 1.6971184204101561 4.27913360595703 1.6971184204101561 Q 4.24771270751953 1.6971184204101561 4.22354278564453 1.7054268310546874 Q 4.19937286376953 1.7137352416992186 4.18245391845703 1.7277840087890624 Q 4.16553497314453 1.741832775878906 4.155867004394531 1.7602623413085936 Q 4.14619903564453 1.7786919067382811 4.1434799194335925 1.799236340332031 L 4.409046936035155 1.799236340332031 M 4.2785293579101555 1.9651024291992185 Q 4.238951110839843 1.9651024291992185 4.206774902343749 1.9546791503906247 Q 4.174598693847655 1.944255871582031 4.151939392089843 1.9247688720703122 Q 4.12928009033203 1.9052818725585936 4.116893005371093 1.8774864624023435 Q 4.104505920410156 1.8496910522460936 4.104505920410156 1.8152489135742185 Q 4.104505920410156 1.7817131469726561 4.117497253417968 1.7537666748046874 Q 4.1304885864257805 1.7258202026367186 4.153752136230468 1.7057289550781247 Q 4.177015686035156 1.685637707519531 4.2090408325195305 1.6746101806640623 Q 4.241065979003905 1.6635826538085936 4.27913360595703 1.6635826538085936 Q 4.3187118530273425 1.6635826538085936 4.350132751464843 1.674761242675781 Q 4.381553649902343 1.6859398315429686 4.4033065795898425 1.706937451171875 Q 4.425059509277343 1.727935070800781 4.4365402221679675 1.7578453491210935 Q 4.448020935058593 1.7877556274414061 4.448020935058593 1.825219006347656 L 4.448020935058593 1.831865734863281 L 4.1434799194335925 1.831865734863281 Q 4.1455947875976555 1.854827160644531 4.155413818359374 1.8732567260742186 Q 4.165232849121093 1.891686291503906 4.18245391845703 1.9046776245117185 Q 4.199674987792968 1.917668957519531 4.223693847656249 1.9246178100585936 Q 4.24771270751953 1.931566662597656 4.2785293579101555 1.931566662597656 Q 4.30813751220703 1.931566662597656 4.330041503906249 1.926732678222656 Q 4.3519454956054675 1.921898693847656 4.367202758789062 1.9137413452148435 Q 4.382460021972656 1.905583996582031 4.391976928710936 1.895311779785156 Q 4.401493835449218 1.885039562988281 4.406629943847656 1.874163098144531 L 4.444395446777343 1.874163098144531 Q 4.4265701293945305 1.920085949707031 4.383819580078124 1.9425941894531247 Q 4.341069030761718 1.9651024291992185 4.2785293579101555 1.9651024291992185 M 4.670535278320312 2.082628674316406 Q 4.62733154296875 2.082628674316406 4.590925598144531 2.074169201660156 Q 4.554519653320312 2.065709729003906 4.527026367187499 2.0521141479492186 L 4.544247436523437 2.0188805053710936 Q 4.549685668945312 2.022203869628906 4.559353637695312 2.027188916015625 Q 4.569021606445312 2.0321739624023434 4.584127807617187 2.0371590087890623 Q 4.599234008789062 2.042144055175781 4.620533752441406 2.045618481445312 Q 4.641833496093749 2.0490929077148436 4.670535278320312 2.0490929077148436 Q 4.701351928710937 2.0490929077148436 4.72401123046875 2.044561047363281 Q 4.746670532226562 2.0400291870117186 4.762834167480468 2.0320229003906247 Q 4.7789978027343745 2.024016613769531 4.7891189575195305 2.0132912109374996 Q 4.799240112304687 2.0025658081054685 4.805131530761718 1.990178723144531 Q 4.811022949218749 1.9777916381835936 4.813137817382812 1.964196057128906 Q 4.8152526855468745 1.9506004760742186 4.8152526855468745 1.937004895019531 L 4.8152526855468745 1.9155540893554686 Q 4.801052856445312 1.926732678222656 4.785644531249999 1.9359474609374998 Q 4.770236206054687 1.9451622436523435 4.752561950683593 1.9518089721679686 Q 4.7348876953125 1.9584557006835934 4.714796447753906 1.9620811889648435 Q 4.694705200195312 1.9657066772460936 4.671139526367187 1.9657066772460936 Q 4.639718627929687 1.9657066772460936 4.609959411621094 1.9564918945312497 Q 4.580200195312499 1.947277111816406 4.557238769531249 1.9282432983398434 Q 4.5342773437499995 1.909209484863281 4.520379638671875 1.880205578613281 Q 4.50648193359375 1.8512016723632811 4.50648193359375 1.8116234252929686 Q 4.50648193359375 1.7735557983398436 4.5202285766601555 1.7454582641601561 Q 4.533975219726562 1.7173607299804685 4.557843017578125 1.6987801025390623 Q 4.581710815429687 1.680199475097656 4.613735961914062 1.6709846923828122 Q 4.645761108398437 1.6617699096679686 4.6823181152343745 1.6617699096679686 Q 4.700747680664062 1.6617699096679686 4.7185729980468745 1.664640087890625 Q 4.736398315429687 1.667510266113281 4.753317260742187 1.6726463745117186 Q 4.770236206054687 1.677782482910156 4.785946655273437 1.6845802734374997 Q 4.801657104492187 1.6913780639648435 4.8152526855468745 1.698931164550781 L 4.8152526855468745 1.6699272583007811 L 4.9209960937499995 1.6699272583007811 L 4.9209960937499995 1.703765148925781 L 4.853018188476562 1.703765148925781 L 4.853018188476562 1.935796398925781 Q 4.853018188476562 1.968425793457031 4.8424438476562495 1.9953148315429685 Q 4.831869506835937 2.022203869628906 4.809663391113281 2.041690869140625 Q 4.787457275390625 2.0611778686523436 4.7528640747070305 2.071903271484375 Q 4.718270874023437 2.082628674316406 4.670535278320312 2.082628674316406 M 4.679901123046874 1.933379406738281 Q 4.702258300781249 1.933379406738281 4.722047424316406 1.9280922363281248 Q 4.741836547851562 1.9228050659179685 4.7589065551757805 1.9143455932617186 Q 4.7759765624999995 1.9058861206054685 4.790025329589843 1.8956139038085935 Q 4.804074096679687 1.8853416870117186 4.8152526855468745 1.875371594238281 L 4.8152526855468745 1.7373009155273436 Q 4.803771972656249 1.7288414428710936 4.789572143554687 1.7211372802734373 Q 4.775372314453125 1.713433117675781 4.758604431152343 1.707390637207031 Q 4.741836547851562 1.701348156738281 4.722953796386718 1.697722668457031 Q 4.704071044921874 1.6940971801757811 4.682922363281249 1.6940971801757811 Q 4.651803588867187 1.6940971801757811 4.626123046875 1.701952404785156 Q 4.600442504882812 1.709807629394531 4.582164001464843 1.7247627685546874 Q 4.563885498046875 1.7397179077148435 4.553764343261718 1.7616218994140622 Q 4.543643188476562 1.783525891113281 4.543643188476562 1.8116234252929686 Q 4.543643188476562 1.8702354858398436 4.578387451171874 1.9018074462890622 Q 4.613131713867187 1.933379406738281 4.679901123046874 1.933379406738281 M 5.233543395996093 1.9240135620117185 Q 5.219645690917968 1.930962414550781 5.202726745605468 1.9383644531249997 Q 5.185807800292968 1.9457664916992186 5.166169738769531 1.9518089721679686 Q 5.146531677246093 1.9578514526367186 5.1244766235351555 1.961779064941406 Q 5.102421569824218 1.9657066772460936 5.078251647949218 1.9657066772460936 Q 5.051060485839843 1.9657066772460936 5.029005432128906 1.9602684448242185 Q 5.006950378417968 1.9548302124023436 4.9915420532226555 1.9441048095703122 Q 4.976133728027343 1.933379406738281 4.967674255371093 1.9175178955078123 Q 4.959214782714843 1.9016563842773435 4.959214782714843 1.880809826660156 Q 4.959214782714843 1.8484825561523435 4.98006134033203 1.8279381225585936 Q 5.000907897949218 1.8073936889648436 5.037615966796874 1.7951576660156248 Q 5.074324035644531 1.782921643066406 5.1244766235351555 1.7771812866210936 Q 5.17462921142578 1.771440930175781 5.233543395996093 1.7687218139648435 L 5.233543395996093 1.7545219848632811 Q 5.233543395996093 1.7385094116210935 5.224781799316405 1.7270286987304686 Q 5.216020202636718 1.7155479858398435 5.201216125488281 1.7082970092773435 Q 5.186412048339843 1.7010460327148436 5.166925048828125 1.6975716064453124 Q 5.147438049316405 1.6940971801757811 5.125685119628906 1.6940971801757811 Q 5.1003067016601555 1.6940971801757811 5.081423950195312 1.6972694824218748 Q 5.062541198730468 1.7004417846679685 5.049549865722655 1.7066353271484374 Q 5.036558532714843 1.712828869628906 5.028854370117187 1.7217415283203124 Q 5.021150207519531 1.7306541870117185 5.01752471923828 1.7421348999023436 L 4.979154968261718 1.7330711791992186 Q 4.988822937011718 1.6992332885742185 5.025228881835937 1.6805015991210936 Q 5.061634826660155 1.6617699096679686 5.1244766235351555 1.6617699096679686 Q 5.156199645996093 1.6617699096679686 5.183088684082031 1.6672081420898435 Q 5.209977722167968 1.6726463745117186 5.229464721679687 1.684429211425781 Q 5.248951721191405 1.6962120483398435 5.259979248046874 1.7150947998046873 Q 5.271006774902343 1.733977551269531 5.271006774902343 1.7608665893554685 L 5.271006774902343 1.9234093139648436 L 5.342912292480468 1.9234093139648436 L 5.342912292480468 1.957549328613281 L 5.233543395996093 1.957549328613281 L 5.233543395996093 1.9240135620117185 M 5.233543395996093 1.800444836425781 Q 5.16737823486328 1.8028618286132811 5.122059631347655 1.8090553710937498 Q 5.07674102783203 1.8152489135742185 5.048794555664061 1.8250679443359372 Q 5.020848083496093 1.834886975097656 5.0086120605468745 1.8483314941406248 Q 4.996376037597655 1.8617760131835934 4.996376037597655 1.878997082519531 Q 4.996376037597655 1.905583996582031 5.019488525390624 1.919481701660156 Q 5.042601013183593 1.933379406738281 5.087315368652343 1.933379406738281 Q 5.1063491821289055 1.933379406738281 5.127951049804687 1.929149670410156 Q 5.149552917480468 1.924919934082031 5.1697952270507805 1.9184242675781247 Q 5.190037536621093 1.9119286010742185 5.206956481933593 1.903771252441406 Q 5.223875427246093 1.8956139038085935 5.233543395996093 1.8877586791992185 L 5.233543395996093 1.800444836425781 M 5.363909912109374 1.6699272583007811 L 5.469653320312499 1.6699272583007811 L 5.469653320312499 1.7243095825195311 Q 5.483853149414062 1.7107140014648436 5.501376342773437 1.6990822265624999 Q 5.518899536132812 1.687450451660156 5.539141845703124 1.6786888549804686 Q 5.559384155273437 1.6699272583007811 5.5817413330078125 1.6649422119140622 Q 5.604098510742187 1.6599571655273435 5.627664184570312 1.6599571655273435 Q 5.65576171875 1.6599571655273435 5.676759338378906 1.6670570800781248 Q 5.697756958007812 1.674156994628906 5.7116546630859375 1.6871483276367185 Q 5.725552368164062 1.7001396606445311 5.732501220703124 1.7187202880859374 Q 5.739450073242187 1.7373009155273436 5.739450073242187 1.7602623413085936 L 5.739450073242187 1.9234093139648436 L 5.807730102539062 1.9234093139648436 L 5.807730102539062 1.957549328613281 L 5.633706665039062 1.957549328613281 L 5.633706665039062 1.9234093139648436 L 5.7016845703125 1.9234093139648436 L 5.7016845703125 1.771440930175781 Q 5.7016845703125 1.7484795043945311 5.695793151855469 1.7335243652343748 Q 5.689901733398437 1.7185692260742185 5.679025268554687 1.709807629394531 Q 5.668148803710937 1.7010460327148436 5.652589416503906 1.6975716064453124 Q 5.6370300292968745 1.6940971801757811 5.617694091796874 1.6940971801757811 Q 5.595034790039062 1.6940971801757811 5.573281860351562 1.7001396606445311 Q 5.5515289306640625 1.7061821411132811 5.5323440551757805 1.7152458618164061 Q 5.5131591796874995 1.7243095825195311 5.496995544433593 1.7353371093749999 Q 5.480831909179687 1.7463646362304686 5.469653320312499 1.756334729003906 L 5.469653320312499 1.9234093139648436 L 5.537933349609375 1.9234093139648436 L 5.537933349609375 1.957549328613281 L 5.363909912109374 1.957549328613281 L 5.363909912109374 1.9234093139648436 L 5.431887817382812 1.9234093139648436 L 5.431887817382812 1.703765148925781 L 5.363909912109374 1.703765148925781 L 5.363909912109374 1.6699272583007811 M 6.153813171386718 1.781108898925781 L 6.153813171386718 1.7669090698242185 Q 6.153813171386718 1.7484795043945311 6.142181396484374 1.7348839233398436 Q 6.1305496215820305 1.7212883422851561 6.1125732421875 1.7125267456054685 Q 6.094596862792968 1.703765148925781 6.072994995117186 1.699535412597656 Q 6.051393127441406 1.695305676269531 6.03145294189453 1.695305676269531 Q 5.9976150512695305 1.695305676269531 5.970726013183593 1.7034630249023435 Q 5.943836975097655 1.711620373535156 5.92525634765625 1.7268776367187497 Q 5.906675720214843 1.7421348999023436 5.8968566894531245 1.7640388916015624 Q 5.887037658691406 1.785942883300781 5.887037658691406 1.8134361694335936 Q 5.887037658691406 1.8412315795898435 5.896705627441405 1.8631355712890623 Q 5.906373596191406 1.885039562988281 5.924652099609374 1.9004478881835936 Q 5.942930603027343 1.915856213378906 5.9693664550781245 1.9240135620117185 Q 5.995802307128906 1.932170910644531 6.029338073730468 1.932170910644531 Q 6.057737731933593 1.932170910644531 6.079037475585936 1.9268837402343748 Q 6.1003372192382805 1.9215965698242186 6.115141296386718 1.9132881591796873 Q 6.129945373535156 1.904979748535156 6.139009094238281 1.894707531738281 Q 6.148072814941406 1.884435314941406 6.152604675292968 1.874163098144531 L 6.191578674316405 1.874163098144531 Q 6.174659729003905 1.918877453613281 6.132966613769531 1.9419899414062498 Q 6.0912734985351555 1.9651024291992185 6.027525329589843 1.9651024291992185 Q 5.988853454589843 1.9651024291992185 5.955770874023437 1.9552833984374998 Q 5.92268829345703 1.945464367675781 5.898669433593749 1.9262794921874997 Q 5.874650573730468 1.9070946166992184 5.861054992675781 1.8788460205078124 Q 5.847459411621093 1.850597424316406 5.847459411621093 1.8140404174804685 Q 5.847459411621093 1.7771812866210936 5.8616592407226555 1.7487816284179685 Q 5.875859069824218 1.7203819702148435 5.900482177734374 1.7010460327148436 Q 5.9251052856445305 1.6817100952148436 5.958187866210936 1.671740002441406 Q 5.991270446777343 1.6617699096679686 6.028733825683593 1.6617699096679686 Q 6.05078887939453 1.6617699096679686 6.069822692871093 1.6647911499023436 Q 6.088856506347655 1.6678123901367186 6.104718017578124 1.6730995605468748 Q 6.120579528808593 1.678386730957031 6.132815551757812 1.6850334594726561 Q 6.145051574707031 1.691680187988281 6.153813171386718 1.698931164550781 L 6.153813171386718 1.668114514160156 L 6.186744689941405 1.668114514160156 L 6.186744689941405 1.781108898925781 L 6.153813171386718 1.781108898925781 M 6.555184936523436 1.799236340332031 Q 6.553674316406249 1.7786919067382811 6.545819091796874 1.7602623413085936 Q 6.537963867187499 1.741832775878906 6.522253417968749 1.7277840087890624 Q 6.506542968749999 1.7137352416992186 6.482675170898436 1.7054268310546874 Q 6.458807373046874 1.6971184204101561 6.425271606445311 1.6971184204101561 Q 6.393850708007811 1.6971184204101561 6.369680786132811 1.7054268310546874 Q 6.345510864257811 1.7137352416992186 6.328591918945311 1.7277840087890624 Q 6.311672973632811 1.741832775878906 6.302005004882812 1.7602623413085936 Q 6.292337036132811 1.7786919067382811 6.289617919921874 1.799236340332031 L 6.555184936523436 1.799236340332031 M 6.424667358398437 1.9651024291992185 Q 6.385089111328124 1.9651024291992185 6.35291290283203 1.9546791503906247 Q 6.320736694335936 1.944255871582031 6.298077392578124 1.9247688720703122 Q 6.275418090820311 1.9052818725585936 6.263031005859374 1.8774864624023435 Q 6.250643920898437 1.8496910522460936 6.250643920898437 1.8152489135742185 Q 6.250643920898437 1.7817131469726561 6.263635253906249 1.7537666748046874 Q 6.276626586914062 1.7258202026367186 6.299890136718749 1.7057289550781247 Q 6.323153686523437 1.685637707519531 6.355178833007812 1.6746101806640623 Q 6.387203979492186 1.6635826538085936 6.425271606445311 1.6635826538085936 Q 6.464849853515624 1.6635826538085936 6.496270751953124 1.674761242675781 Q 6.527691650390624 1.6859398315429686 6.549444580078124 1.706937451171875 Q 6.571197509765624 1.727935070800781 6.582678222656249 1.7578453491210935 Q 6.594158935546874 1.7877556274414061 6.594158935546874 1.825219006347656 L 6.594158935546874 1.831865734863281 L 6.289617919921874 1.831865734863281 Q 6.291732788085937 1.854827160644531 6.301551818847655 1.8732567260742186 Q 6.311370849609374 1.891686291503906 6.328591918945311 1.9046776245117185 Q 6.345812988281249 1.917668957519531 6.36983184814453 1.9246178100585936 Q 6.393850708007811 1.931566662597656 6.424667358398437 1.931566662597656 Q 6.454275512695311 1.931566662597656 6.47617950439453 1.926732678222656 Q 6.498083496093749 1.921898693847656 6.513340759277343 1.9137413452148435 Q 6.528598022460937 1.905583996582031 6.538114929199217 1.895311779785156 Q 6.547631835937499 1.885039562988281 6.552767944335937 1.874163098144531 L 6.590533447265624 1.874163098144531 Q 6.572708129882812 1.920085949707031 6.529957580566405 1.9425941894531247 Q 6.487207031249999 1.9651024291992185 6.424667358398437 1.9651024291992185 M 6.660173034667968 1.9246178100585936 Q 6.660173034667968 1.9173668334960936 6.662741088867187 1.911022229003906 Q 6.6653091430664055 1.9046776245117185 6.670143127441405 1.8999947021484374 Q 6.674977111816405 1.895311779785156 6.681321716308593 1.8924416015624999 Q 6.687666320800781 1.8895714233398435 6.6955215454101555 1.8895714233398435 Q 6.70337677001953 1.8895714233398435 6.710023498535156 1.8924416015624999 Q 6.7166702270507805 1.895311779785156 6.72150421142578 1.9004478881835936 Q 6.72633819580078 1.905583996582031 6.729057312011718 1.912834973144531 Q 6.7317764282226555 1.920085949707031 6.7317764282226555 1.928545422363281 Q 6.7317764282226555 1.9421410034179685 6.728150939941406 1.9549812744140622 Q 6.724525451660155 1.967821545410156 6.718180847167968 1.9794533203124998 Q 6.711836242675781 1.9910850952148436 6.703225708007812 2.0013573120117183 Q 6.694615173339843 2.0116295288085935 6.684947204589843 2.0200890014648434 L 6.668934631347655 2.004680676269531 Q 6.680113220214843 1.993199963378906 6.687364196777343 1.9818703124999997 Q 6.694615173339843 1.9705406616210934 6.697938537597656 1.957549328613281 Q 6.688270568847655 1.957549328613281 6.681170654296874 1.9546791503906247 Q 6.674070739746093 1.9518089721679686 6.669387817382812 1.9471260498046872 Q 6.664704895019531 1.942443127441406 6.66243896484375 1.9365517089843747 Q 6.660173034667968 1.9306602905273436 6.660173034667968 1.9246178100585936 M 7.026649475097655 1.542430920410156 L 7.153541564941405 1.542430920410156 L 7.397355651855468 1.9185753295898436 L 7.637242126464843 1.542430920410156 L 7.764738464355468 1.542430920410156 L 7.764738464355468 1.5762688110351561 L 7.678028869628905 1.5762688110351561 L 7.678028869628905 1.9234093139648436 L 7.764738464355468 1.9234093139648436 L 7.764738464355468 1.957549328613281 L 7.553855895996093 1.957549328613281 L 7.553855895996093 1.9234093139648436 L 7.640565490722656 1.9234093139648436 L 7.640565490722656 1.6043663452148436 L 7.412763977050781 1.957549328613281 L 7.379228210449218 1.957549328613281 L 7.151124572753906 1.602855725097656 L 7.151124572753906 1.9234093139648436 L 7.237532043457031 1.9234093139648436 L 7.237532043457031 1.957549328613281 L 7.026649475097655 1.957549328613281 L 7.026649475097655 1.9234093139648436 L 7.113359069824218 1.9234093139648436 L 7.113359069824218 1.5762688110351561 L 7.026649475097655 1.5762688110351561 L 7.026649475097655 1.542430920410156 M 8.189071655273438 1.8140404174804685 Q 8.189071655273438 1.853618664550781 8.174871826171874 1.8821693847656247 Q 8.160671997070311 1.9107201049804685 8.135897827148437 1.9293007324218747 Q 8.111123657226562 1.947881359863281 8.07743682861328 1.9567940185546873 Q 8.04375 1.9657066772460936 8.004776000976562 1.9657066772460936 Q 7.965499877929687 1.9657066772460936 7.931661987304687 1.9567940185546873 Q 7.897824096679686 1.947881359863281 7.872898864746093 1.9293007324218747 Q 7.847973632812499 1.9107201049804685 7.833773803710937 1.8821693847656247 Q 7.819573974609375 1.853618664550781 7.819573974609375 1.8140404174804685 Q 7.819573974609375 1.7747642944335935 7.833924865722656 1.7459114501953124 Q 7.848275756835937 1.717058605957031 7.873352050781249 1.6984779785156248 Q 7.898428344726562 1.6798973510742186 7.932266235351562 1.6708336303710936 Q 7.966104125976562 1.6617699096679686 8.004776000976562 1.6617699096679686 Q 8.04375 1.6617699096679686 8.07743682861328 1.670682568359375 Q 8.111123657226562 1.679595227050781 8.135897827148437 1.6981758544921872 Q 8.160671997070311 1.7167564819335936 8.174871826171874 1.7456093261718748 Q 8.189071655273438 1.774462170410156 8.189071655273438 1.8140404174804685 M 8.151910400390625 1.8140404174804685 Q 8.151910400390625 1.755730480957031 8.114900207519531 1.724913830566406 Q 8.077890014648437 1.6940971801757811 8.004776000976562 1.6940971801757811 Q 7.93135986328125 1.6940971801757811 7.894047546386718 1.724913830566406 Q 7.856735229492187 1.755730480957031 7.856735229492187 1.8140404174804685 Q 7.856735229492187 1.872350354003906 7.894047546386718 1.9028648803710935 Q 7.93135986328125 1.933379406738281 8.004776000976562 1.933379406738281 Q 8.077890014648437 1.933379406738281 8.114900207519531 1.9027138183593748 Q 8.151910400390625 1.8720482299804686 8.151910400390625 1.8140404174804685 M 8.663255310058593 1.957549328613281 L 8.557511901855468 1.957549328613281 L 8.557511901855468 1.9155540893554686 Q 8.543312072753906 1.926732678222656 8.527903747558593 1.9359474609374998 Q 8.512495422363282 1.9451622436523435 8.494821166992187 1.9518089721679686 Q 8.477146911621093 1.9584557006835934 8.4570556640625 1.9620811889648435 Q 8.436964416503907 1.9657066772460936 8.413398742675781 1.9657066772460936 Q 8.38197784423828 1.9657066772460936 8.352218627929688 1.9564918945312497 Q 8.322459411621093 1.947277111816406 8.299497985839844 1.9282432983398434 Q 8.276536560058593 1.909209484863281 8.262638854980468 1.880205578613281 Q 8.248741149902344 1.8512016723632811 8.248741149902344 1.8116234252929686 Q 8.248741149902344 1.7735557983398436 8.26248779296875 1.7454582641601561 Q 8.276234436035155 1.7173607299804685 8.300102233886719 1.6987801025390623 Q 8.32397003173828 1.680199475097656 8.355995178222656 1.6709846923828122 Q 8.38802032470703 1.6617699096679686 8.424577331542968 1.6617699096679686 Q 8.443006896972657 1.6617699096679686 8.460832214355468 1.664640087890625 Q 8.47865753173828 1.667510266113281 8.495576477050781 1.6726463745117186 Q 8.512495422363282 1.677782482910156 8.528205871582031 1.6845802734374997 Q 8.543916320800781 1.6913780639648435 8.557511901855468 1.698931164550781 L 8.557511901855468 1.5762688110351561 L 8.488929748535156 1.5762688110351561 L 8.488929748535156 1.542430920410156 L 8.595277404785156 1.542430920410156 L 8.595277404785156 1.9234093139648436 L 8.663255310058593 1.9234093139648436 L 8.663255310058593 1.957549328613281 M 8.422160339355468 1.933379406738281 Q 8.444517517089844 1.933379406738281 8.464306640624999 1.9280922363281248 Q 8.484095764160156 1.9228050659179685 8.501165771484375 1.9143455932617186 Q 8.518235778808593 1.9058861206054685 8.532284545898436 1.8956139038085935 Q 8.546333312988281 1.8853416870117186 8.557511901855468 1.875371594238281 L 8.557511901855468 1.7373009155273436 Q 8.546031188964843 1.7288414428710936 8.531831359863281 1.7211372802734373 Q 8.517631530761719 1.713433117675781 8.500863647460937 1.707390637207031 Q 8.484095764160156 1.701348156738281 8.465213012695312 1.697722668457031 Q 8.446330261230468 1.6940971801757811 8.425181579589843 1.6940971801757811 Q 8.39406280517578 1.6940971801757811 8.368382263183593 1.701952404785156 Q 8.342701721191405 1.709807629394531 8.324423217773438 1.7247627685546874 Q 8.306144714355469 1.7397179077148435 8.296023559570312 1.7616218994140622 Q 8.285902404785157 1.783525891113281 8.285902404785157 1.8116234252929686 Q 8.285902404785157 1.8702354858398436 8.320646667480469 1.9018074462890622 Q 8.355390930175782 1.933379406738281 8.422160339355468 1.933379406738281 M 9.006015014648439 1.799236340332031 Q 9.004504394531251 1.7786919067382811 8.996649169921875 1.7602623413085936 Q 8.9887939453125 1.741832775878906 8.97308349609375 1.7277840087890624 Q 8.957373046875 1.7137352416992186 8.933505249023439 1.7054268310546874 Q 8.909637451171875 1.6971184204101561 8.876101684570314 1.6971184204101561 Q 8.844680786132812 1.6971184204101561 8.820510864257812 1.7054268310546874 Q 8.796340942382812 1.7137352416992186 8.779421997070314 1.7277840087890624 Q 8.762503051757813 1.741832775878906 8.752835083007813 1.7602623413085936 Q 8.743167114257814 1.7786919067382811 8.740447998046875 1.799236340332031 L 9.006015014648439 1.799236340332031 M 8.875497436523437 1.9651024291992185 Q 8.835919189453126 1.9651024291992185 8.803742980957031 1.9546791503906247 Q 8.771566772460938 1.944255871582031 8.748907470703125 1.9247688720703122 Q 8.726248168945313 1.9052818725585936 8.713861083984375 1.8774864624023435 Q 8.701473999023438 1.8496910522460936 8.701473999023438 1.8152489135742185 Q 8.701473999023438 1.7817131469726561 8.714465332031251 1.7537666748046874 Q 8.727456665039062 1.7258202026367186 8.750720214843751 1.7057289550781247 Q 8.773983764648438 1.685637707519531 8.806008911132812 1.6746101806640623 Q 8.838034057617188 1.6635826538085936 8.876101684570314 1.6635826538085936 Q 8.915679931640625 1.6635826538085936 8.947100830078126 1.674761242675781 Q 8.978521728515625 1.6859398315429686 9.000274658203125 1.706937451171875 Q 9.022027587890625 1.727935070800781 9.03350830078125 1.7578453491210935 Q 9.044989013671875 1.7877556274414061 9.044989013671875 1.825219006347656 L 9.044989013671875 1.831865734863281 L 8.740447998046875 1.831865734863281 Q 8.742562866210937 1.854827160644531 8.752381896972656 1.8732567260742186 Q 8.762200927734375 1.891686291503906 8.779421997070314 1.9046776245117185 Q 8.79664306640625 1.917668957519531 8.820661926269532 1.9246178100585936 Q 8.844680786132812 1.931566662597656 8.875497436523437 1.931566662597656 Q 8.905105590820312 1.931566662597656 8.927009582519531 1.926732678222656 Q 8.94891357421875 1.921898693847656 8.964170837402344 1.9137413452148435 Q 8.979428100585938 1.905583996582031 8.988945007324219 1.895311779785156 Q 8.998461914062501 1.885039562988281 9.003598022460938 1.874163098144531 L 9.041363525390626 1.874163098144531 Q 9.023538208007812 1.920085949707031 8.980787658691407 1.9425941894531247 Q 8.938037109375001 1.9651024291992185 8.875497436523437 1.9651024291992185 M 9.088041687011719 1.6699272583007811 L 9.193785095214844 1.6699272583007811 L 9.193785095214844 1.7303520629882811 Q 9.206172180175782 1.715850109863281 9.220372009277344 1.7033119628906248 Q 9.234571838378907 1.6907738159179686 9.25103759765625 1.6815590332031247 Q 9.267503356933595 1.672344250488281 9.286386108398439 1.6670570800781248 Q 9.305268859863283 1.6617699096679686 9.327021789550782 1.6617699096679686 Q 9.337898254394531 1.6617699096679686 9.347264099121094 1.6634315917968747 Q 9.356629943847658 1.665093273925781 9.363880920410157 1.6672081420898435 Q 9.371131896972656 1.669323010253906 9.375965881347657 1.6714378784179686 Q 9.380799865722658 1.673552746582031 9.382612609863282 1.674156994628906 L 9.369017028808594 1.7089012573242186 Q 9.361463928222657 1.704973645019531 9.349530029296876 1.700743908691406 Q 9.337596130371095 1.696514172363281 9.319468688964845 1.696514172363281 Q 9.296507263183594 1.696514172363281 9.277322387695314 1.7036140869140624 Q 9.258137512207032 1.7107140014648436 9.242578125000001 1.7212883422851561 Q 9.227018737792969 1.7318626831054686 9.214933776855469 1.7447029541015624 Q 9.202848815917969 1.7575432250976561 9.193785095214844 1.7687218139648435 L 9.193785095214844 1.9234093139648436 L 9.26810760498047 1.9234093139648436 L 9.26810760498047 1.957549328613281 L 9.088041687011719 1.957549328613281 L 9.088041687011719 1.9234093139648436 L 9.156019592285157 1.9234093139648436 L 9.156019592285157 1.703765148925781 L 9.088041687011719 1.703765148925781 L 9.088041687011719 1.6699272583007811 M 9.404818725585939 1.6699272583007811 L 9.510562133789064 1.6699272583007811 L 9.510562133789064 1.7243095825195311 Q 9.524761962890626 1.7107140014648436 9.542285156250001 1.6990822265624999 Q 9.559808349609376 1.687450451660156 9.580050659179689 1.6786888549804686 Q 9.60029296875 1.6699272583007811 9.622650146484377 1.6649422119140622 Q 9.645007324218751 1.6599571655273435 9.668572998046876 1.6599571655273435 Q 9.696670532226564 1.6599571655273435 9.71766815185547 1.6670570800781248 Q 9.738665771484376 1.674156994628906 9.752563476562502 1.6871483276367185 Q 9.766461181640626 1.7001396606445311 9.773410034179689 1.7187202880859374 Q 9.780358886718751 1.7373009155273436 9.780358886718751 1.7602623413085936 L 9.780358886718751 1.9234093139648436 L 9.848638916015627 1.9234093139648436 L 9.848638916015627 1.957549328613281 L 9.674615478515626 1.957549328613281 L 9.674615478515626 1.9234093139648436 L 9.742593383789064 1.9234093139648436 L 9.742593383789064 1.771440930175781 Q 9.742593383789064 1.7484795043945311 9.736701965332033 1.7335243652343748 Q 9.730810546875002 1.7185692260742185 9.719934082031251 1.709807629394531 Q 9.7090576171875 1.7010460327148436 9.69349822998047 1.6975716064453124 Q 9.67793884277344 1.6940971801757811 9.658602905273439 1.6940971801757811 Q 9.635943603515626 1.6940971801757811 9.614190673828126 1.7001396606445311 Q 9.592437744140627 1.7061821411132811 9.573252868652345 1.7152458618164061 Q 9.554067993164065 1.7243095825195311 9.537904357910158 1.7353371093749999 Q 9.52174072265625 1.7463646362304686 9.510562133789064 1.756334729003906 L 9.510562133789064 1.9234093139648436 L 9.57884216308594 1.9234093139648436 L 9.57884216308594 1.957549328613281 L 9.404818725585939 1.957549328613281 L 9.404818725585939 1.9234093139648436 L 9.472796630859376 1.9234093139648436 L 9.472796630859376 1.703765148925781 L 9.404818725585939 1.703765148925781 L 9.404818725585939 1.6699272583007811 M 10.116622924804688 1.542430920410156 L 10.327505493164063 1.542430920410156 L 10.327505493164063 1.5762688110351561 L 10.241098022460937 1.5762688110351561 L 10.241098022460937 1.9222008178710934 L 10.54171142578125 1.9222008178710934 L 10.54171142578125 1.8270317504882811 L 10.575851440429688 1.8270317504882811 L 10.575851440429688 1.957549328613281 L 10.116622924804688 1.957549328613281 L 10.116622924804688 1.9234093139648436 L 10.20333251953125 1.9234093139648436 L 10.20333251953125 1.5762688110351561 L 10.116622924804688 1.5762688110351561 L 10.116622924804688 1.542430920410156 M 10.614976501464843 1.6699272583007811 L 10.720719909667968 1.6699272583007811 L 10.720719909667968 1.9234093139648436 L 10.788999938964844 1.9234093139648436 L 10.788999938964844 1.957549328613281 L 10.614976501464843 1.957549328613281 L 10.614976501464843 1.9234093139648436 L 10.682954406738281 1.9234093139648436 L 10.682954406738281 1.703765148925781 L 10.614976501464843 1.703765148925781 L 10.614976501464843 1.6699272583007811 M 10.663920593261718 1.5892601440429686 Q 10.663920593261718 1.5823112915039061 10.666488647460938 1.5761177490234373 Q 10.669056701660157 1.5699242065429686 10.67358856201172 1.565392346191406 Q 10.678120422363282 1.5608604858398436 10.684162902832032 1.5581413696289061 Q 10.690205383300782 1.5554222534179685 10.697154235839843 1.5554222534179685 Q 10.704103088378906 1.5554222534179685 10.710296630859375 1.5581413696289061 Q 10.716490173339844 1.5608604858398436 10.721173095703126 1.565392346191406 Q 10.725856018066406 1.5699242065429686 10.728575134277344 1.5761177490234373 Q 10.731294250488281 1.5823112915039061 10.731294250488281 1.5892601440429686 Q 10.731294250488281 1.596208996582031 10.728575134277344 1.6024025390624999 Q 10.725856018066406 1.6085960815429685 10.721173095703126 1.613127941894531 Q 10.716490173339844 1.6176598022460935 10.710296630859375 1.6202278564453123 Q 10.704103088378906 1.622795910644531 10.697154235839843 1.622795910644531 Q 10.690205383300782 1.622795910644531 10.684162902832032 1.6202278564453123 Q 10.678120422363282 1.6176598022460935 10.67358856201172 1.613127941894531 Q 10.669056701660157 1.6085960815429685 10.666488647460938 1.6024025390624999 Q 10.663920593261718 1.596208996582031 10.663920593261718 1.5892601440429686 M 10.79912109375 1.6699272583007811 L 10.948370361328124 1.6699272583007811 L 10.948370361328124 1.703765148925781 L 10.897613525390625 1.703765148925781 L 11.003961181640625 1.9209923217773435 L 11.110913085937499 1.703765148925781 L 11.060156249999999 1.703765148925781 L 11.060156249999999 1.6699272583007811 L 11.209405517578125 1.6699272583007811 L 11.209405517578125 1.703765148925781 L 11.152304077148436 1.703765148925781 L 11.022994995117188 1.957549328613281 L 10.984020996093749 1.957549328613281 L 10.85592041015625 1.703765148925781 L 10.79912109375 1.703765148925781 L 10.79912109375 1.6699272583007811 M 11.224058532714842 1.6699272583007811 L 11.329801940917967 1.6699272583007811 L 11.329801940917967 1.9234093139648436 L 11.398081970214843 1.9234093139648436 L 11.398081970214843 1.957549328613281 L 11.224058532714842 1.957549328613281 L 11.224058532714842 1.9234093139648436 L 11.29203643798828 1.9234093139648436 L 11.29203643798828 1.703765148925781 L 11.224058532714842 1.703765148925781 L 11.224058532714842 1.6699272583007811 M 11.273002624511717 1.5892601440429686 Q 11.273002624511717 1.5823112915039061 11.275570678710936 1.5761177490234373 Q 11.278138732910156 1.5699242065429686 11.282670593261718 1.565392346191406 Q 11.287202453613281 1.5608604858398436 11.293244934082031 1.5581413696289061 Q 11.299287414550781 1.5554222534179685 11.306236267089842 1.5554222534179685 Q 11.313185119628905 1.5554222534179685 11.319378662109374 1.5581413696289061 Q 11.325572204589843 1.5608604858398436 11.330255126953125 1.565392346191406 Q 11.334938049316404 1.5699242065429686 11.337657165527343 1.5761177490234373 Q 11.34037628173828 1.5823112915039061 11.34037628173828 1.5892601440429686 Q 11.34037628173828 1.596208996582031 11.337657165527343 1.6024025390624999 Q 11.334938049316404 1.6085960815429685 11.330255126953125 1.613127941894531 Q 11.325572204589843 1.6176598022460935 11.319378662109374 1.6202278564453123 Q 11.313185119628905 1.622795910644531 11.306236267089842 1.622795910644531 Q 11.299287414550781 1.622795910644531 11.293244934082031 1.6202278564453123 Q 11.287202453613281 1.6176598022460935 11.282670593261718 1.613127941894531 Q 11.278138732910156 1.6085960815429685 11.275570678710936 1.6024025390624999 Q 11.273002624511717 1.596208996582031 11.273002624511717 1.5892601440429686 M 11.42240295410156 1.6699272583007811 L 11.528146362304685 1.6699272583007811 L 11.528146362304685 1.7243095825195311 Q 11.542346191406248 1.7107140014648436 11.559869384765623 1.6990822265624999 Q 11.577392578124998 1.687450451660156 11.59763488769531 1.6786888549804686 Q 11.617877197265623 1.6699272583007811 11.640234374999999 1.6649422119140622 Q 11.662591552734373 1.6599571655273435 11.686157226562498 1.6599571655273435 Q 11.714254760742186 1.6599571655273435 11.735252380371092 1.6670570800781248 Q 11.756249999999998 1.674156994628906 11.770147705078124 1.6871483276367185 Q 11.784045410156248 1.7001396606445311 11.79099426269531 1.7187202880859374 Q 11.797943115234373 1.7373009155273436 11.797943115234373 1.7602623413085936 L 11.797943115234373 1.9234093139648436 L 11.866223144531249 1.9234093139648436 L 11.866223144531249 1.957549328613281 L 11.692199707031248 1.957549328613281 L 11.692199707031248 1.9234093139648436 L 11.760177612304686 1.9234093139648436 L 11.760177612304686 1.771440930175781 Q 11.760177612304686 1.7484795043945311 11.754286193847655 1.7335243652343748 Q 11.748394775390624 1.7185692260742185 11.737518310546873 1.709807629394531 Q 11.726641845703123 1.7010460327148436 11.711082458496092 1.6975716064453124 Q 11.695523071289061 1.6940971801757811 11.67618713378906 1.6940971801757811 Q 11.653527832031248 1.6940971801757811 11.631774902343748 1.7001396606445311 Q 11.610021972656249 1.7061821411132811 11.590837097167967 1.7152458618164061 Q 11.571652221679686 1.7243095825195311 11.55548858642578 1.7353371093749999 Q 11.539324951171873 1.7463646362304686 11.528146362304685 1.756334729003906 L 11.528146362304685 1.9234093139648436 L 11.596426391601561 1.9234093139648436 L 11.596426391601561 1.957549328613281 L 11.42240295410156 1.957549328613281 L 11.42240295410156 1.9234093139648436 L 11.490380859374998 1.9234093139648436 L 11.490380859374998 1.703765148925781 L 11.42240295410156 1.703765148925781 L 11.42240295410156 1.6699272583007811 M 12.070005798339842 2.082628674316406 Q 12.02680206298828 2.082628674316406 11.99039611816406 2.074169201660156 Q 11.953990173339841 2.065709729003906 11.92649688720703 2.0521141479492186 L 11.943717956542967 2.0188805053710936 Q 11.949156188964842 2.022203869628906 11.958824157714842 2.027188916015625 Q 11.968492126464842 2.0321739624023434 11.983598327636717 2.0371590087890623 Q 11.998704528808592 2.042144055175781 12.020004272460936 2.045618481445312 Q 12.04130401611328 2.0490929077148436 12.070005798339842 2.0490929077148436 Q 12.100822448730467 2.0490929077148436 12.12348175048828 2.044561047363281 Q 12.146141052246092 2.0400291870117186 12.162304687499997 2.0320229003906247 Q 12.178468322753904 2.024016613769531 12.188589477539061 2.0132912109374996 Q 12.198710632324216 2.0025658081054685 12.204602050781247 1.990178723144531 Q 12.21049346923828 1.9777916381835936 12.212608337402342 1.964196057128906 Q 12.214723205566404 1.9506004760742186 12.214723205566404 1.937004895019531 L 12.214723205566404 1.9155540893554686 Q 12.200523376464842 1.926732678222656 12.185115051269529 1.9359474609374998 Q 12.169706726074217 1.9451622436523435 12.152032470703123 1.9518089721679686 Q 12.134358215332028 1.9584557006835934 12.114266967773435 1.9620811889648435 Q 12.094175720214842 1.9657066772460936 12.070610046386717 1.9657066772460936 Q 12.039189147949216 1.9657066772460936 12.009429931640623 1.9564918945312497 Q 11.979670715332029 1.947277111816406 11.95670928955078 1.9282432983398434 Q 11.93374786376953 1.909209484863281 11.919850158691403 1.880205578613281 Q 11.90595245361328 1.8512016723632811 11.90595245361328 1.8116234252929686 Q 11.90595245361328 1.7735557983398436 11.919699096679686 1.7454582641601561 Q 11.933445739746091 1.7173607299804685 11.957313537597654 1.6987801025390623 Q 11.981181335449216 1.680199475097656 12.013206481933592 1.6709846923828122 Q 12.045231628417966 1.6617699096679686 12.081788635253904 1.6617699096679686 Q 12.100218200683592 1.6617699096679686 12.118043518066404 1.664640087890625 Q 12.135868835449216 1.667510266113281 12.152787780761717 1.6726463745117186 Q 12.169706726074217 1.677782482910156 12.185417175292967 1.6845802734374997 Q 12.201127624511717 1.6913780639648435 12.214723205566404 1.698931164550781 L 12.214723205566404 1.6699272583007811 L 12.32046661376953 1.6699272583007811 L 12.32046661376953 1.703765148925781 L 12.252488708496092 1.703765148925781 L 12.252488708496092 1.935796398925781 Q 12.252488708496092 1.968425793457031 12.24191436767578 1.9953148315429685 Q 12.231340026855467 2.022203869628906 12.20913391113281 2.041690869140625 Q 12.186927795410154 2.0611778686523436 12.152334594726561 2.071903271484375 Q 12.117741394042966 2.082628674316406 12.070005798339842 2.082628674316406 M 12.079371643066404 1.933379406738281 Q 12.10172882080078 1.933379406738281 12.121517944335935 1.9280922363281248 Q 12.141307067871091 1.9228050659179685 12.158377075195311 1.9143455932617186 Q 12.17544708251953 1.9058861206054685 12.189495849609372 1.8956139038085935 Q 12.203544616699217 1.8853416870117186 12.214723205566404 1.875371594238281 L 12.214723205566404 1.7373009155273436 Q 12.203242492675779 1.7288414428710936 12.189042663574217 1.7211372802734373 Q 12.174842834472654 1.713433117675781 12.158074951171873 1.707390637207031 Q 12.141307067871091 1.701348156738281 12.122424316406248 1.697722668457031 Q 12.103541564941404 1.6940971801757811 12.082392883300779 1.6940971801757811 Q 12.051274108886716 1.6940971801757811 12.025593566894528 1.701952404785156 Q 11.999913024902341 1.709807629394531 11.981634521484374 1.7247627685546874 Q 11.963356018066404 1.7397179077148435 11.953234863281248 1.7616218994140622 Q 11.943113708496092 1.783525891113281 11.943113708496092 1.8116234252929686 Q 11.943113708496092 1.8702354858398436 11.977857971191405 1.9018074462890622 Q 12.012602233886717 1.933379406738281 12.079371643066404 1.933379406738281 M 12.366238403320311 1.925524182128906 Q 12.366238403320311 1.9179710815429685 12.368957519531248 1.9114754150390623 Q 12.371676635742187 1.904979748535156 12.376359558105467 1.900145764160156 Q 12.381042480468748 1.895311779785156 12.387538146972656 1.8924416015624999 Q 12.394033813476561 1.8895714233398435 12.401586914062499 1.8895714233398435 Q 12.408837890624998 1.8895714233398435 12.415333557128905 1.8924416015624999 Q 12.42182922363281 1.895311779785156 12.426663208007811 1.900145764160156 Q 12.43149719238281 1.904979748535156 12.434367370605468 1.9114754150390623 Q 12.437237548828124 1.9179710815429685 12.437237548828124 1.925524182128906 Q 12.437237548828124 1.932775158691406 12.434367370605468 1.9392708251953124 Q 12.43149719238281 1.9457664916992186 12.426663208007811 1.9504494140624997 Q 12.42182922363281 1.955132336425781 12.415333557128905 1.9578514526367186 Q 12.408837890624998 1.960570568847656 12.401586914062499 1.960570568847656 Q 12.394033813476561 1.960570568847656 12.387538146972656 1.9578514526367186 Q 12.381042480468748 1.955132336425781 12.376359558105467 1.9504494140624997 Q 12.371676635742187 1.9457664916992186 12.368957519531248 1.9392708251953124 Q 12.366238403320311 1.932775158691406 12.366238403320311 1.925524182128906" fill="#595959" fill-rule="nonzero"></path></g></g><defs><clipPath id="SvgjsClipPath68865"><path d=" M -3.6375454952812527 -1.3969677202749247 h 3.237545495281253 v 4.75148476916313 h -3.237545495281253 Z"></path></clipPath><clipPath id="a7278346f-2aa5-44a6-9331-6c09469e70da26e6556a-d046-46ad-9bfc-f4796360b034"><path d=" M -3.6375484991872593 3.3545530648969826 L -0.39994663706630673 3.3545530648969826 L -0.39994663706630673 -1.3969696679622186 L -3.6375484991872593 -1.3969696679622186 Z"></path></clipPath></defs></svg>